<svg xmlns="http://www.w3.org/2000/svg" viewBox="0 0 117.5 45" height="45" width="117.5"><defs><clipPath id="a"><path d="M0 36h94V0H0v36z"/></clipPath></defs><g clip-path="url(#a)" transform="matrix(1.25 0 0 -1.25 0 45)"><path d="M7.28 13.284a1.066 1.066 0 0 0-.951 1.54l2.126 4.252a1.064 1.064 0 0 0 1.902-.952L8.23 13.872a1.065 1.065 0 0 0-.951-.588M20.035 13.284a1.066 1.066 0 0 0-.95 1.54l4.253 8.503a1.063 1.063 0 1 0 1.9-.95l-4.25-8.505a1.068 1.068 0 0 0-.953-.588M17.91 17.537a1.064 1.064 0 0 0-.951 1.539l2.126 4.252a1.064 1.064 0 0 0 1.902-.951l-2.126-4.252a1.064 1.064 0 0 0-.952-.588M11.531 13.284a1.064 1.064 0 0 0-.95 1.539l4.252 8.504a1.063 1.063 0 0 0 1.902-.95l-4.252-8.505a1.067 1.067 0 0 0-.952-.588M41.126 26.797c0 .189.067.35.202.487a.666.666 0 0 0 .485.202c.19 0 .35-.067.481-.202a.667.667 0 0 0 .204-.487v-5.095a2.44 2.44 0 0 0-.735-1.783 2.441 2.441 0 0 0-1.784-.736.644.644 0 0 0-.48.203.644.644 0 0 0-.203.48c0 .189.068.352.203.487a.644.644 0 0 0 .48.203c.317 0 .587.112.81.335.225.224.337.494.337.81v5.096zM48.502 22.31l-1.118 2.687-1.111-2.687h2.229zm-4.238-3.075a.672.672 0 0 0-.371.371.673.673 0 0 0 0 .521l.735 1.766v.006l2.131 5.141c.008.02.017.04.029.06l.011.027.023.03c0 .003.007.012.018.028l.023.023c0 .004.006.012.017.023.016.016.024.024.024.03l.023.017c.015.015.025.022.029.022-.004 0 .004.007.023.018l.029.023.023.017a.393.393 0 0 0 .075.035c.02.012.026.016.018.012l.023.011c.02.005.032.008.041.012.003 0 .017.004.039.012l.024.005c.008 0 .021.002.041.006l.028.006h.134l.035-.006.028-.006a.147.147 0 0 0 .041-.01c.023-.005.03-.007.023-.007a.498.498 0 0 0 .128-.052c-.004.004.004 0 .023-.01.019-.014.03-.02.035-.025l.023-.017.029-.024c.004 0 .011-.005.023-.016a.087.087 0 0 1 .029-.023c0-.006.006-.013.017-.024.015-.016.023-.025.023-.029l.018-.023c.015-.016.023-.025.023-.029s.006-.013.017-.029a.41.41 0 0 0 .047-.087l2.131-5.14v-.007l.734-1.766a.673.673 0 0 0 0-.52.67.67 0 0 0-.37-.372.698.698 0 0 0-.261-.052.63.63 0 0 0-.631.423l-.555 1.343h-3.353l-.556-1.343a.63.63 0 0 0-.631-.423h-.133l-.127.052M59.902 27.486a.663.663 0 0 0 .36-.25.652.652 0 0 0 .138-.41v-6.96a.653.653 0 0 0-.197-.48.663.663 0 0 0-.486-.203.667.667 0 0 0-.487.203.653.653 0 0 0-.196.48v4.506l-2.16-3.568v-.005l-.006-.006-.005-.006-.007-.006a.34.34 0 0 1-.023-.041l-.017-.023-.029-.028-.023-.023c-.01-.012-.019-.02-.023-.024l-.035-.03-.017-.016c-.012-.007-.025-.016-.04-.023 0-.004-.003-.005-.007-.005l-.006-.007h-.005a.16.16 0 0 0-.04-.023c-.016-.007-.023-.011-.017-.011a.127.127 0 0 1-.036-.012.632.632 0 0 0-.278-.052h-.01c.006 0 0 .002-.024.006a.66.66 0 0 0-.175.035c.008-.004 0-.002-.023.005a.711.711 0 0 0-.04.018c.005 0 0 .004-.012.01a.39.39 0 0 0-.046.024h-.006l-.005.007-.006.005a.133.133 0 0 0-.04.029c0-.004-.006 0-.019.01l-.034.03-.022.024c-.012.01-.02.019-.024.023a.11.11 0 0 1-.029.028.08.08 0 0 0-.012.023c-.007.009-.018.022-.028.04l-.006.007c0 .004-.003.006-.007.006v.006c0 .004 0 .005-.005.005l-2.154 3.568v-4.506a.647.647 0 0 0-.202-.48.668.668 0 0 0-.488-.203.647.647 0 0 0-.48.203.643.643 0 0 0-.202.48v6.96c0 .154.046.29.14.41a.663.663 0 0 0 .364.25.69.69 0 0 0 .769-.307l2.85-4.707 2.848 4.707a.665.665 0 0 0 .33.284l.214.082.226-.06zM67.215 20.556c.189 0 .35-.067.48-.203a.667.667 0 0 0 .204-.486.65.65 0 0 0-.203-.481.646.646 0 0 0-.481-.203h-4.191c-.19 0-.35.068-.481.203a.646.646 0 0 0-.203.48v6.943a.65.65 0 0 0 .203.486.64.64 0 0 0 .48.203h.006l4.186-.012a.665.665 0 0 0 .487-.202.676.676 0 0 0 .197-.487.647.647 0 0 0-.203-.48.642.642 0 0 0-.481-.203h-.006l-3.497.01v-2.1h2.525a.674.674 0 0 0 .486-.197.66.66 0 0 0 .203-.486.658.658 0 0 0-.203-.486.67.67 0 0 0-.486-.197h-2.525v-2.102h3.503zM74.725 19.444h-.005v.005l-4.163 5.356v-4.94a.647.647 0 0 0-.202-.48.65.65 0 0 0-.482-.202.644.644 0 0 0-.48.203.64.64 0 0 0-.202.48v6.937a.65.65 0 0 0 .126.393.652.652 0 0 0 .336.249.64.64 0 0 0 .417.013.68.68 0 0 0 .343-.238l4.163-5.362v4.945c0 .19.064.349.196.48a.662.662 0 0 0 .486.203c.19 0 .349-.067.48-.202a.65.65 0 0 0 .204-.481v-6.948a.157.157 0 0 0-.006-.035v-.03c0-.007-.003-.018-.006-.034a.09.09 0 0 0-.006-.034l-.006-.03c-.004-.02-.007-.03-.011-.034a.104.104 0 0 0-.012-.03.384.384 0 0 0-.011-.034l-.013-.028-.016-.03-.018-.034-.017-.017a.271.271 0 0 0-.024-.036l-.016-.022-.024-.024c-.011-.015-.02-.022-.023-.022 0-.004-.008-.012-.024-.023a.128.128 0 0 0-.028-.024c.01.008.01.006-.006-.006l-.006-.006a.714.714 0 0 0-.087-.057h-.005a.826.826 0 0 0-.093-.041l-.012-.006a.39.39 0 0 0-.098-.023l-.017-.006c-.035-.003-.068-.006-.1-.006-.022 0-.047.003-.075.006.009-.003.005-.003-.011 0-.023.004-.043.007-.057.012.003-.005-.005-.003-.024.006l-.046.01c-.004 0-.012.005-.024.013a.113.113 0 0 0-.046.017.03.03 0 0 0-.022.012c-.016.007-.03.014-.041.017-.012.008-.02.013-.024.018a.437.437 0 0 0-.063.046.396.396 0 0 0-.052.046l-.006.006v.006l-.023.023-.018.023M79.247 20.561l1.06.017a2.67 2.67 0 0 1 1.962.812c.541.54.811 1.192.811 1.956 0 .76-.27 1.411-.81 1.952a2.66 2.66 0 0 1-1.958.816h-1.065v-5.553zm-.689-1.378a.67.67 0 0 0-.48.197.662.662 0 0 0-.203.486v6.931c0 .189.067.351.202.487a.655.655 0 0 0 .481.196h1.754c1.143 0 2.12-.403 2.93-1.21.807-.811 1.21-1.785 1.21-2.924 0-1.142-.403-2.118-1.21-2.923-.81-.811-1.787-1.216-2.93-1.216l-1.743-.024h-.01zM89.825 26.131a2.676 2.676 0 0 1-1.968-.817 2.686 2.686 0 0 1-.823-1.974c0-.768.274-1.424.823-1.968a2.666 2.666 0 0 1 1.968-.823 2.69 2.69 0 0 1 1.975.823c.544.544.816 1.2.816 1.968 0 .77-.272 1.427-.816 1.974a2.7 2.7 0 0 1-1.975.817m0-6.948c-1.146 0-2.125.407-2.936 1.221-.814.811-1.22 1.79-1.22 2.936s.406 2.127 1.22 2.941c.811.811 1.79 1.216 2.936 1.216s2.127-.405 2.941-1.216c.811-.814 1.217-1.795 1.217-2.94 0-1.147-.406-2.126-1.217-2.937-.814-.814-1.795-1.22-2.94-1.22M47.037 16.945a.67.67 0 0 0 .36-.249.648.648 0 0 0 .138-.41v-6.96a.66.66 0 0 0-.197-.482.67.67 0 0 0-.487-.203.667.667 0 0 0-.486.203.66.66 0 0 0-.197.482v4.504l-2.16-3.567v-.005l-.005-.006-.006-.005-.006-.007a.34.34 0 0 1-.023-.04l-.017-.024c-.017-.014-.026-.024-.03-.028a.157.157 0 0 0-.023-.023c-.01-.012-.019-.02-.023-.024-.007-.008-.019-.017-.034-.029l-.018-.017-.04-.023c0-.004-.002-.005-.006-.005l-.006-.007h-.006a.12.12 0 0 0-.04-.023l-.018-.01c-.003 0-.015-.006-.035-.014a.628.628 0 0 0-.278-.05h-.01c.007 0 0 .001-.024.005a.629.629 0 0 0-.174.035.215.215 0 0 0-.064.023c.004 0 0 .003-.01.011a.278.278 0 0 0-.047.023h-.007l-.005.007-.006.005c-.015.01-.029.017-.04.03a.367.367 0 0 0-.076.064l-.023.022c-.003.008-.014.017-.028.028-.008.013-.012.02-.012.023a.248.248 0 0 0-.029.041l-.006.007c0 .003-.002.005-.005.005v.006c0 .004-.003.005-.007.005l-2.154 3.567V9.326a.649.649 0 0 0-.202-.482.668.668 0 0 0-.487-.203.647.647 0 0 0-.48.203.646.646 0 0 0-.203.482v6.96c0 .154.046.291.14.41a.667.667 0 0 0 .364.25.7.7 0 0 0 .434-.023.694.694 0 0 0 .336-.285l2.85-4.707 2.848 4.707a.663.663 0 0 0 .33.285l.214.081.226-.059M54.593 16.945a.646.646 0 0 0 .475-.196.65.65 0 0 0 .197-.476v-4.666a2.86 2.86 0 0 0-.868-2.097 2.852 2.852 0 0 0-2.091-.869c-.818 0-1.517.29-2.096.87a2.861 2.861 0 0 0-.87 2.096v4.666a.65.65 0 0 0 .198.476c.13.131.29.196.475.196a.648.648 0 0 0 .475-.196.653.653 0 0 0 .197-.476v-4.666c0-.447.158-.83.474-1.146.317-.317.7-.475 1.147-.475.443 0 .824.158 1.14.475.317.316.475.7.475 1.146v4.666c0 .187.067.344.197.476a.65.65 0 0 0 .475.196M62.352 11.115c-.031-.69-.307-1.275-.828-1.755a2.697 2.697 0 0 0-1.876-.719c-.63 0-1.192.137-1.691.407-.598.325-.98.795-1.14 1.413a.668.668 0 0 0 .069.515.667.667 0 0 0 .417.313.672.672 0 0 0 .828-.486c.07-.259.259-.462.568-.609.278-.128.594-.19.949-.19.363 0 .674.113.933.34.26.225.4.502.416.834a.727.727 0 0 1-.214.54c-.24.253-.641.385-1.204.393H59.549c-.945.015-1.67.287-2.171.816-.413.44-.606.952-.58 1.535.032.694.308 1.281.829 1.76a2.678 2.678 0 0 0 1.876.718c.629 0 1.193-.136 1.69-.406.598-.323.978-.795 1.14-1.412a.655.655 0 0 0-.074-.516.634.634 0 0 0-.411-.312.668.668 0 0 0-.515.07.657.657 0 0 0-.313.416c-.07.258-.261.461-.573.607a2.208 2.208 0 0 1-.944.192c-.362 0-.674-.113-.937-.342a1.144 1.144 0 0 1-.412-.834.738.738 0 0 1 .215-.544c.239-.25.64-.38 1.204-.388h.028c.946-.015 1.67-.289 2.172-.822.413-.436.606-.947.579-1.534M64.58 8.642a.642.642 0 0 0-.479.203.647.647 0 0 0-.204.482v6.907c0 .189.068.348.204.48.13.136.291.203.48.203a.64.64 0 0 0 .48-.203.646.646 0 0 0 .204-.48V9.327a.65.65 0 0 0-.204-.482.644.644 0 0 0-.48-.203M70.765 8.642c-1.14 0-2.113.404-2.924 1.21-.806.81-1.21 1.787-1.21 2.926 0 1.14.404 2.116 1.21 2.924.81.809 1.785 1.215 2.924 1.215.937 0 1.779-.286 2.524-.857a.675.675 0 0 0 .26-.452.665.665 0 0 0-.138-.51.657.657 0 0 0-.452-.26.689.689 0 0 0-.51.133 2.68 2.68 0 0 1-1.684.574c-.761 0-1.411-.27-1.951-.81a2.668 2.668 0 0 1-.811-1.957c0-.761.27-1.411.81-1.952a2.66 2.66 0 0 1 1.952-.811c.718 0 1.339.239 1.864.718.14.128.303.187.492.18a.647.647 0 0 0 .475-.226.662.662 0 0 0 .18-.492.656.656 0 0 0-.22-.474 4.015 4.015 0 0 0-2.791-1.08" fill="#ff1f59"/><path d="M29.186 10.917c0-.405-.216-.779-.566-.981L16.351 2.853a1.13 1.13 0 0 0-1.134 0L2.948 9.936c-.35.202-.566.576-.566.981v14.167c0 .404.216.778.566.981l12.269 7.083c.351.203.783.203 1.134 0l12.269-7.083c.35-.203.566-.577.566-.981V10.917zm1.698 16.571l-14.433 8.333a1.329 1.329 0 0 1-1.333 0L.684 27.488a1.332 1.332 0 0 1-.667-1.154V9.667c0-.476.254-.917.667-1.154L15.118.179a1.331 1.331 0 0 1 1.333 0l14.433 8.334c.412.237.667.678.667 1.154v16.667c0 .476-.255.916-.667 1.154" fill="#ff1f59"/></g></svg>