<svg xmlns="http://www.w3.org/2000/svg" xmlns:xlink="http://www.w3.org/1999/xlink" viewBox="0 0 1202.3 434.5"><g opacity=".23"><path fill="#152740" stroke="#FFA700" stroke-miterlimit="10" d="M115.5 25.6s-3.6-1.1-3.6-3.1c0-1.9 0-5.8-5.2-5.8s-13-3.6-13-3.6V9.5s3.5.4 3.5-1.2-4-1.5-4-1.5.2-3.2-2.2-3.2c-2.3 0-4-2.1-4-2.1S85.9 1 84.7 1H84c-1.2 0-2.4.6-2.4.6s-1.7 2.3-4 2.3S75.4 7 75.4 7s-4.5-.1-4.5 1.5 2.8 1.2 2.8 1.2v3.7S66.6 17 61.4 17c-5.2 0-4.8 3.9-4.8 5.8s-3.5 3.1-3.5 3.1-7.6-1-7.6 1.8c0 2.7 1.3 3.6 1.3 3.6h10.6v5h-3.8c-2.7 0 3.1 5 3.1 5H69.4c1.5 6.3 9.8 48.5 9.8 68.1 0 21.6-12.3 130.4-12.5 131.5l4.9.7v-.1h16s0-.1 0 0l4.9-.5c-.1-1.1-8.4-109.7-8.4-131.3 0-4.5.3-10.8.8-15.9h4.8c-.4 5-.6 11.2-.6 15.8 0 21.8 7 127.4 7.3 131.9l4.9-.4c-.1-1.1-7.3-109.9-7.3-131.6 0-19.6 4.8-61.9 5.7-68.2h12.6s5.8-5 3.1-5H110v-5h11.9s1.2-.9 1.2-3.6c0-3.1-7.6-2.1-7.6-2.1zM81.1 150.8c.7 10.9 1.5 20.4 2.3 34.2h-5.7c1.2-13.8 2.4-23.3 3.4-34.2zm4.8 69.2H74c.4-3.8.9-8.8 1.3-12.5H85c.4 3.7.7 8.7.9 12.5zm-1.2-17.6h-8.8c.4-5 .9-10 1.4-12.5h6.5c.3 2.5.6 7.5.9 12.5zM81.1 79.1C78.7 62.8 75.6 46 74.4 41h11.3c-.8 5-2.9 21.8-4.6 38.1zm8.8 9.5h-4.7c1.7-20 4.7-42.5 5.4-47.6h4c-.7 6.3-3.3 27.6-4.7 47.6z"/><path fill="none" stroke="#FFA700" stroke-miterlimit="10" d="M81.1 79.1C78.7 62.8 75.6 46 74.4 41h11.3c-.8 5-2.9 21.8-4.6 38.1M85.2 88.4C86.9 68.8 89.9 46 90.6 41h4c-.8 6.3-3.3 27.8-4.7 47.3"/><path fill="#152740" d="M118.8 223.7v80.1H31.2v-66.3H110v-13.8z"/><path fill="none" stroke="#FFA700" stroke-miterlimit="10" d="M118.8 223.7v80.1H31.2v-66.3H110v-13.8z"/><g opacity=".33"><defs><path id="a" d="M12.4 237.5h18.8v66.3H12.4z"/></defs><clipPath id="b"><use xlink:href="#a" overflow="visible"/></clipPath><path clip-path="url(#b)" fill="#FFA700" d="M12.4 303.8h18.8v-66.3l-18.8 4.4z"/></g><path fill="none" stroke="#FFA700" stroke-miterlimit="10" d="M12.4 303.8h18.8v-66.3l-18.8 4.4z"/><path fill="#152740" d="M1128 41.6l-61.7-8.3-80.5 8.3v133.6H1128z"/><path fill="none" stroke="#FFA700" stroke-miterlimit="10" d="M1128 41.6l-61.7-8.3-80.5 8.3v133.6H1128z"/><g opacity=".33"><defs><path id="c" d="M985.3 32.9h78.8v146.4h-78.8z"/></defs><clipPath id="d"><use xlink:href="#c" overflow="visible"/></clipPath><path clip-path="url(#d)" fill="#FFA700" d="M1064.2 179.3V32.9l-78.9 8.7v137.7z"/></g><path fill="none" stroke="#FFA700" stroke-miterlimit="10" d="M1064.8 178.7V32.9L986 41.6v137.1z"/><path fill="#152740" d="M309 330.7V205h47.5v10h13.8v-8.8h186.4v-90.1h43.8V58.5h20.1V44.8h25v-10h43.8v12.5h7.5V31h42.5v13.8h35.1v19.4l19.4-15.7H832v41.3h18.8v17.5h21.3v18.8h11.2v10h26.3v23.8h180.2V89.2l50.1-10.6h61.3v252.1"/><path fill="none" stroke="#FFA700" stroke-linecap="round" stroke-linejoin="round" stroke-miterlimit="10" d="M309 330.7V205h47.5v10h13.8v-8.8h186.4v-90.1h43.8V58.5h20.1V44.8h25v-10h43.8v12.5h7.5V31h42.5v13.8h35.1v19.4l19.4-15.7H832v41.3h18.8v17.5h21.3v18.8h11.2v10h26.3v23.8h180.2V89.2l50.1-10.6h61.3v252.1"/><g opacity=".33"><defs><path id="e" d="M474.9 57.6h14.2v17.8h-14.2z"/></defs><clipPath id="f"><use xlink:href="#e" overflow="visible"/></clipPath><path clip-path="url(#f)" fill="#FFA700" d="M489.2 57.6l-14.3 2.5v15.3h14.3z"/></g><path fill="none" stroke="#FFA700" stroke-linecap="round" stroke-linejoin="round" stroke-miterlimit="10" d="M489.2 57.6l-14.3 2.5v15.3h14.3z"/><path fill="#152740" d="M525.9 57.6h-36.7v18.8l36.7-.9z"/><path fill="none" stroke="#FFA700" stroke-linecap="round" stroke-linejoin="round" stroke-miterlimit="10" d="M525.9 57.6h-36.7v18.8l36.7-.9z"/><path fill="#152740" d="M487.3 73.6h48.2v13.7H553v8.8h15v162l-61.3 9.4-28.8-187.3v-6z"/><path fill="none" stroke="#FFA700" stroke-miterlimit="10" d="M487.3 73.6h48.2v13.7H553v8.8h15v162l-61.3 9.4-28.8-187.3v-6z"/><path fill="#152740" d="M221.6 262.5h-59.7v-89.6l34.4-8h25.3z"/><path fill="none" stroke="#FFA700" stroke-miterlimit="10" d="M221.6 262.5h-59.7v-89.6l34.4-8h25.3z"/><g opacity=".33"><defs><path id="g" d="M161.9 164.9h34.4v97.6h-34.4z"/></defs><clipPath id="h"><use xlink:href="#g" overflow="visible"/></clipPath><path clip-path="url(#h)" fill="#FFA700" d="M196.3 164.9l-34.4 8v89.6h34.4z"/></g><path fill="#152740" d="M312.9 294.8h-91.3V36.6l39.2-10 52.1 8z"/><path fill="none" stroke="#FFA700" stroke-miterlimit="10" d="M312.9 294.8h-91.3V36.6l39.2-10 52.1 8z"/><g opacity=".33"><defs><path id="i" d="M221.6 26.6h41.1v268.2h-41.1z"/></defs><clipPath id="j"><use xlink:href="#i" overflow="visible"/></clipPath><path clip-path="url(#j)" fill="#FFA700" d="M221.6 36.6l41.1-10v268.2h-41.1z"/></g><path fill="none" stroke="#FFA700" stroke-miterlimit="10" d="M262.7 26.6v267.8"/><path fill="#152740" d="M309.4 225.3l-69.5.2-45.4 3.2v-12.6l44.9-3.7 70 .2z"/><path fill="none" stroke="#FFA700" stroke-miterlimit="10" d="M309.4 225.3l-69.5.2-45.4 3.2v-12.6l44.9-3.7 70 .2z"/><g opacity=".33"><defs><path id="k" d="M194.5 212.4h46.1v16.3h-46.1z"/></defs><clipPath id="l"><use xlink:href="#k" overflow="visible"/></clipPath><path clip-path="url(#l)" fill="#FFA700" d="M194.5 216.1l46-3.7v13.2l-46 3.1z"/></g><path fill="none" stroke="#FFA700" stroke-miterlimit="10" d="M240.1 211.8v13.8"/><path fill="#152740" d="M345.3 247H217.5l-46.4 1.1V227l46.7-2.9 127.5.2z"/><path fill="none" stroke="#FFA700" stroke-miterlimit="10" d="M345.3 247H217.5l-46.4 1.1V227l46.7-2.9 127.5.2z"/><g opacity=".33"><defs><path id="m" d="M171.1 224.1h48.3v24h-48.3z"/></defs><clipPath id="n"><use xlink:href="#m" overflow="visible"/></clipPath><path clip-path="url(#n)" fill="#FFA700" d="M171.1 227l48.4-2.9V246l-48.4 2.1z"/></g><path fill="none" stroke="#FFA700" stroke-miterlimit="10" d="M218.9 224.3v22.6"/><path fill="#152740" d="M.5 301.9h518.6v17.2H.5z"/><path fill="none" stroke="#FFA700" stroke-miterlimit="10" d="M.5 301.9h518.6v17.2H.5z"/><path fill="#152740" d="M353.4 305l-198.1 1.1v-56.9l41.5-2.2h156.6z"/><path fill="none" stroke="#FFA700" stroke-miterlimit="10" d="M353.4 305l-198.1 1.1v-56.9l41.5-2.2h156.6z"/><g opacity=".33"><defs><path id="o" d="M155.3 247h43.5v59.1h-43.5z"/></defs><clipPath id="p"><use xlink:href="#o" overflow="visible"/></clipPath><path clip-path="url(#p)" fill="#FFA700" d="M155.3 249.2l43.5-2.2v59.1h-43.5z"/></g><path fill="none" stroke="#FFA700" stroke-miterlimit="10" d="M197.6 246.9v58.8"/><path fill="#152740" d="M155.7 303.6H96.4v-55.5l25.5-3.6 33.8 1.7z"/><path fill="none" stroke="#FFA700" stroke-miterlimit="10" d="M155.7 303.6H96.4v-55.5l25.5-3.6 33.8 1.7z"/><g opacity=".33"><defs><path id="q" d="M96.4 244.5H123v59.1H96.4z"/></defs><clipPath id="r"><use xlink:href="#q" overflow="visible"/></clipPath><path clip-path="url(#r)" fill="#FFA700" d="M96.4 248.1l26.7-3.6v59.1H96.4z"/></g><path fill="none" stroke="#FFA700" stroke-miterlimit="10" d="M122.5 244.4v58.8"/><path fill="#152740" d="M38 376.2H.5V325l21.7-4.5H38z"/><path fill="none" stroke="#FFA700" stroke-miterlimit="10" d="M38 376.2H.5V325l21.7-4.5H38z"/><g opacity=".33"><defs><path id="s" d="M.5 320.5h21.7v55.7H.5z"/></defs><clipPath id="t"><use xlink:href="#s" overflow="visible"/></clipPath><path clip-path="url(#t)" fill="#FFA700" d="M22.2 320.5L.5 325v51.2h21.7z"/></g><path fill="#152740" d="M122.5 376.2h-96v-61l25-5.4h71z"/><path fill="none" stroke="#FFA700" stroke-miterlimit="10" d="M122.5 376.2h-96v-61l25-5.4h71z"/><g opacity=".33"><defs><path id="u" d="M26.5 310h25.1v66.2H26.5z"/></defs><clipPath id="v"><use xlink:href="#u" overflow="visible"/></clipPath><path clip-path="url(#v)" fill="#FFA700" d="M51.5 310l-25 5.4v60.8h25z"/></g><path fill="#152740" d="M144.4 315.7v-.1l-.6.1h-.6l-41.3 3.4v9.4l-21.3 1.6v9.6l-13.8 1.1V377H122.6l68.8-9.4h.6v-51.9z"/><path fill="#152740" d="M143.2 316.3h48.1V367l-68.8 9.4H96.9l-.7-1.6v-35.3"/><path fill="none" stroke="#FFA700" stroke-miterlimit="10" d="M143.2 316.3h48.1V367l-68.8 9.4H96.9l-.7-1.6v-35.3"/><g opacity=".33"><defs><path id="w" d="M101.9 316.3h41.3V329h-41.3z"/></defs><clipPath id="x"><use xlink:href="#w" overflow="visible"/></clipPath><path clip-path="url(#x)" fill="#FFA700" d="M143.2 316.3v9.8l-41.3 2.9v-9.3z"/></g><path fill="none" stroke="#FFA700" stroke-miterlimit="10" d="M143.8 316.3v9.8l-41.3 2.9v-9.3z"/><g opacity=".33"><defs><path id="y" d="M80.6 327.6h41.3v12.7H80.6z"/></defs><clipPath id="z"><use xlink:href="#y" overflow="visible"/></clipPath><path clip-path="url(#z)" fill="#FFA700" d="M121.9 327.6v9l-41.3 3.7v-9.6z"/></g><path fill="none" stroke="#FFA700" stroke-miterlimit="10" d="M122.5 327.6v9l-41.3 3.7v-9.6z"/><g opacity=".33"><defs><path id="A" d="M66.8 339h28.8v38H66.8z"/></defs><clipPath id="B"><use xlink:href="#A" overflow="visible"/></clipPath><path clip-path="url(#B)" fill="#FFA700" d="M95.6 339v38H66.8v-35.6z"/></g><path fill="none" stroke="#FFA700" stroke-miterlimit="10" d="M96.2 339v37.4H67.4v-35z"/><path fill="#152740" d="M529.2 318.6v36.3l-261.5 35.3v-47.6z"/><path fill="none" stroke="#FFA700" stroke-miterlimit="10" d="M529.2 318.6v36.3l-261.5 35.3v-47.6z"/><path fill="#152740" d="M529.2 311.9v6.7l-260.7 24h-8.3v-8.8z"/><path fill="none" stroke="#FFA700" stroke-miterlimit="10" d="M529.2 311.9v6.7l-260.7 24h-8.3v-8.8z"/><path fill="#152740" d="M519.1 304.9l10 7-269 22H247c0-7.3-8.9-13.8-15.7-13.8l287.8-15.2z"/><path fill="none" stroke="#FFA700" stroke-miterlimit="10" d="M519.1 304.9l10 7-269 22H247c0-7.3-8.9-13.8-15.7-13.8l287.8-15.2z"/><path fill="#152740" d="M163.2 343.2h103.9v47.6H163.2z"/><g opacity=".33"><defs><path id="C" d="M163.2 343.2h103.9v47.6H163.2z"/></defs><clipPath id="D"><use xlink:href="#C" overflow="visible"/></clipPath><path clip-path="url(#D)" fill="#FFA700" d="M163.2 343.2h103.9v47.6H163.2z"/></g><path fill="none" stroke="#FFA700" stroke-miterlimit="10" d="M163.8 342.6h103.9v47.6H163.8z"/><path fill="#152740" d="M170.7 334.5h88.8v8.8h-88.8z"/><g opacity=".33"><defs><path id="E" d="M170.7 334.5h88.8v8.8h-88.8z"/></defs><clipPath id="F"><use xlink:href="#E" overflow="visible"/></clipPath><path clip-path="url(#F)" fill="#FFA700" d="M170.7 334.5h88.8v8.8h-88.8z"/></g><path fill="none" stroke="#FFA700" stroke-miterlimit="10" d="M171.3 333.8h88.8v8.8h-88.8z"/><path fill="#152740" d="M247 334.5h-53.8c0-8.8 12.1-15.3 26.9-15.3 14.9-.1 26.9 6.5 26.9 15.3"/><g opacity=".33"><defs><path id="G" d="M193.2 319.1H247v15.3h-53.8z"/></defs><clipPath id="H"><use xlink:href="#G" overflow="visible"/></clipPath><path clip-path="url(#H)" fill="#FFA700" d="M247 334.5h-53.8c0-8.8 12.1-15.3 26.9-15.3 14.9-.1 26.9 6.5 26.9 15.3"/></g><path fill="none" stroke="#FFA700" stroke-miterlimit="10" d="M247 333.8h-53.8c0-8.5 12.1-15.3 26.9-15.3 14.9 0 26.9 6.9 26.9 15.3z"/><path fill="#152740" d="M223.3 326.5c0-2.4-1.4-4.3-3.2-4.3-1.7 0-3.2 1.9-3.2 4.3s1.4 4.3 3.2 4.3c1.8 0 3.2-2 3.2-4.3"/><ellipse fill="none" stroke="#FFA700" stroke-width=".5" stroke-miterlimit="10" cx="220.1" cy="326.5" rx="3.2" ry="4.3"/><path fill="#152740" d="M437.9 80.8l46.9-7.5V93h13.7v22.5l7.6-.6v153.2h-96.4V165.5h7.5v-43.8h8.8v-12.5h6.2v-8.7h6.3z"/><g opacity=".33"><defs><path id="I" d="M409.7 73.3h96.4v194.8h-96.4z"/></defs><clipPath id="J"><use xlink:href="#I" overflow="visible"/></clipPath><path clip-path="url(#J)" fill="#FFA700" d="M437.9 80.8l46.9-7.5V93h13.7v22.5l7.6-.6v153.2h-96.4V165.5h7.5v-43.8h8.8v-12.5h6.2v-8.7h6.3z"/></g><path fill="none" stroke="#FFA700" stroke-miterlimit="10" d="M438.2 80.5l47.2-7.2v19h13.8v23.2l7.5-.6v152.6h-96.4V164.9h7.5v-43.8h8.8v-12.5h6.3v-8.8h5.6zM1024.8 313.2v-39.4h-36.3v-6.3h-27.6v8.8h-25v-13.8h-10v7.5h-3.8v-5h-8.7v6.3H805.8v58.2"/><path fill="#152740" d="M1129.9 313.1H792.3l-9.1 16.7h346.7z"/><path fill="none" stroke="#FFA700" stroke-miterlimit="10" d="M1129.9 313.1H792.3l-9.1 16.7h346.7z"/><path fill="#152740" d="M783.2 329.8h346.6v34.1H783.2z"/><path fill="none" stroke="#FFA700" stroke-miterlimit="10" d="M783.2 329.8h346.6v34.1H783.2z"/><path fill="#152740" d="M816.6 363.9h282v40.7h-282z"/><path fill="none" stroke="#FFA700" stroke-miterlimit="10" d="M816.6 363.9h282v40.7h-282z"/><path fill="#152740" d="M1096.5 337.8H821.9l-7.4 26h282z"/><path fill="none" stroke="#FFA700" stroke-miterlimit="10" d="M1096.5 337.8H821.9l-7.4 26h282z"/><path fill="#152740" d="M1036.6 405.8v-52.6h-7.5l61.4-29v-8.5h-5.1l36.6-18.5 32.3 13.5v13.8l46.3 21.9v59.4z"/><g opacity=".33"><defs><path id="K" d="M1029.1 297.2h171.4v108.6h-171.4z"/></defs><clipPath id="L"><use xlink:href="#K" overflow="visible"/></clipPath><path clip-path="url(#L)" fill="#FFA700" d="M1036.6 405.8v-52.6h-7.5l61.4-29v-8.5h-5.1l36.6-18.5 32.3 13.5v13.8l46.3 21.9v59.4z"/></g><path fill="none" stroke="#FFA700" stroke-miterlimit="10" d="M1037.3 405.2v-52.6h-8.2l62-28.4v-9.1h-5.7l37-18.2 32.5 13.8v13.8l46.3 21.9v58.8z"/><path fill="none" stroke="#FFA700" stroke-miterlimit="10" d="M1122.4 297.6h78.8v14.7l-46.3-1.3zM1201.2 347l-46.3-21.9h46.9z"/><path fill="none" stroke="#FFA700" stroke-miterlimit="10" d="M1201.2 312.3l-46.3-1.6v14.4h46.3z"/><path fill="#152740" d="M1201.2 213.1V205h-163.9v7.5H994.7v-12.6h-22.5v-13.7h-65.1v-8.8h-41.3v23.8h-37.5v70.7"/><path fill="none" stroke="#FFA700" stroke-miterlimit="10" d="M1201.2 213.1V205h-163.9v7.5H994.7v-12.6h-22.5v-13.7h-65.1v-8.8h-41.3v23.8h-37.5v70.7M907.1 186.8v43.8M972.2 199.3v42.6M994.7 213.1v23.8"/><defs><path id="M" d="M763.9 44.5h11.7v11h-11.7z"/></defs><clipPath id="N"><use xlink:href="#M" overflow="visible"/></clipPath><path clip-path="url(#N)" fill="#152740" d="M775.2 45.7c0 .1 0 .1-.1.2-.5.4-2.7.7-5.3.7s-4.8-.3-5.3-.7c-.1-.1-.1-.1-.1-.2 0-.5 2.4-.8 5.5-.8 2.8 0 5.3.4 5.3.8"/><path clip-path="url(#N)" fill="none" stroke="#FFA700" stroke-width=".623" stroke-linecap="round" stroke-linejoin="round" stroke-miterlimit="10" d="M775.2 45.7c0 .1 0 .1-.1.2-.5.4-2.7.7-5.3.7s-4.8-.3-5.3-.7c-.1-.1-.1-.1-.1-.2 0-.5 2.4-.8 5.5-.8 2.8 0 5.3.4 5.3.8z"/><path clip-path="url(#N)" fill="#152740" d="M775.2 46.1v8.2c0 .5-2.4.8-5.5.8s-5.5-.4-5.5-.8v-8.2s3.3.7 5.9.7 5.1-.7 5.1-.7"/><path clip-path="url(#N)" fill="none" stroke="#FFA700" stroke-width=".623" stroke-linecap="round" stroke-linejoin="round" stroke-miterlimit="10" d="M775.2 46.1v8.2c0 .5-2.4.8-5.5.8s-5.5-.4-5.5-.8v-8.2s3.3.7 5.9.7 5.1-.7 5.1-.7z"/><defs><path id="O" d="M721.3 19.5H733v11h-11.7z"/></defs><clipPath id="P"><use xlink:href="#O" overflow="visible"/></clipPath><path clip-path="url(#P)" fill="#152740" d="M732.6 20.7c0 .1 0 .1-.1.2-.5.4-2.7.7-5.3.7-2.6 0-4.8-.3-5.3-.7-.1-.1-.1-.1-.1-.2 0-.5 2.4-.8 5.5-.8 2.9 0 5.3.3 5.3.8"/><path clip-path="url(#P)" fill="none" stroke="#FFA700" stroke-width=".623" stroke-linecap="round" stroke-linejoin="round" stroke-miterlimit="10" d="M732.6 20.7c0 .1 0 .1-.1.2-.5.4-2.7.7-5.3.7-2.6 0-4.8-.3-5.3-.7-.1-.1-.1-.1-.1-.2 0-.5 2.4-.8 5.5-.8 2.9 0 5.3.3 5.3.8z"/><path clip-path="url(#P)" fill="#152740" d="M732.6 21.1v8.2c0 .5-2.4.8-5.5.8-3 0-5.5-.4-5.5-.8v-8.2s3.3.7 5.9.7c2.8-.1 5.1-.7 5.1-.7"/><path clip-path="url(#P)" fill="none" stroke="#FFA700" stroke-width=".623" stroke-linecap="round" stroke-linejoin="round" stroke-miterlimit="10" d="M732.6 21.1v8.2c0 .5-2.4.8-5.5.8-3 0-5.5-.4-5.5-.8v-8.2s3.3.7 5.9.7c2.8-.1 5.1-.7 5.1-.7z"/><defs><path id="Q" d="M671.3 3.2H683v11h-11.7z"/></defs><clipPath id="R"><use xlink:href="#Q" overflow="visible"/></clipPath><path clip-path="url(#R)" fill="#152740" d="M682.6 4.4c0 .1 0 .1-.1.2-.5.4-2.7.7-5.3.7-2.6 0-4.8-.3-5.3-.7-.1-.1-.1-.1-.1-.2 0-.5 2.4-.8 5.5-.8 2.8 0 5.3.4 5.3.8"/><path clip-path="url(#R)" fill="none" stroke="#FFA700" stroke-width=".623" stroke-linecap="round" stroke-linejoin="round" stroke-miterlimit="10" d="M682.6 4.4c0 .1 0 .1-.1.2-.5.4-2.7.7-5.3.7-2.6 0-4.8-.3-5.3-.7-.1-.1-.1-.1-.1-.2 0-.5 2.4-.8 5.5-.8 2.8 0 5.3.4 5.3.8z"/><path clip-path="url(#R)" fill="#152740" d="M682.6 4.8V13c0 .5-2.4.8-5.5.8-3 0-5.5-.4-5.5-.8V4.8s3.3.7 5.9.7c2.7 0 5.1-.7 5.1-.7"/><path clip-path="url(#R)" fill="none" stroke="#FFA700" stroke-width=".623" stroke-linecap="round" stroke-linejoin="round" stroke-miterlimit="10" d="M682.6 4.8V13c0 .5-2.4.8-5.5.8-3 0-5.5-.4-5.5-.8V4.8s3.3.7 5.9.7c2.7 0 5.1-.7 5.1-.7z"/><defs><path id="S" d="M798.9 83.3h11.7v11h-11.7z"/></defs><clipPath id="T"><use xlink:href="#S" overflow="visible"/></clipPath><path clip-path="url(#T)" fill="#152740" d="M810.2 84.5c0 .1 0 .1-.1.2-.5.4-2.7.7-5.3.7s-4.8-.3-5.3-.7c-.1-.1-.1-.1-.1-.2 0-.5 2.4-.8 5.5-.8 2.9 0 5.3.3 5.3.8"/><path clip-path="url(#T)" fill="none" stroke="#FFA700" stroke-width=".623" stroke-linecap="round" stroke-linejoin="round" stroke-miterlimit="10" d="M810.2 84.5c0 .1 0 .1-.1.2-.5.4-2.7.7-5.3.7s-4.8-.3-5.3-.7c-.1-.1-.1-.1-.1-.2 0-.5 2.4-.8 5.5-.8 2.9 0 5.3.3 5.3.8z"/><path clip-path="url(#T)" fill="#152740" d="M810.2 84.9v8.2c0 .5-2.4.8-5.5.8-3 0-5.5-.4-5.5-.8v-8.2s3.3.7 5.9.7c2.8 0 5.1-.7 5.1-.7"/><path clip-path="url(#T)" fill="none" stroke="#FFA700" stroke-width=".623" stroke-linecap="round" stroke-linejoin="round" stroke-miterlimit="10" d="M810.2 84.9v8.2c0 .5-2.4.8-5.5.8-3 0-5.5-.4-5.5-.8v-8.2s3.3.7 5.9.7c2.8 0 5.1-.7 5.1-.7z"/><defs><path id="U" d="M821.4 133.3h11.7v11h-11.7z"/></defs><clipPath id="V"><use xlink:href="#U" overflow="visible"/></clipPath><path clip-path="url(#V)" fill="#152740" d="M832.7 134.6c0 .1 0 .1-.1.2-.5.4-2.7.7-5.3.7-2.6 0-4.8-.3-5.3-.7-.1-.1-.1-.1-.1-.2 0-.5 2.4-.8 5.5-.8 2.9-.1 5.3.3 5.3.8"/><path clip-path="url(#V)" fill="none" stroke="#FFA700" stroke-width=".623" stroke-linecap="round" stroke-linejoin="round" stroke-miterlimit="10" d="M832.7 134.6c0 .1 0 .1-.1.2-.5.4-2.7.7-5.3.7-2.6 0-4.8-.3-5.3-.7-.1-.1-.1-.1-.1-.2 0-.5 2.4-.8 5.5-.8 2.9-.1 5.3.3 5.3.8z"/><path clip-path="url(#V)" fill="#152740" d="M832.7 135v8.2c0 .5-2.4.8-5.5.8-3 0-5.5-.4-5.5-.8V135s3.3.7 5.9.7c2.8-.1 5.1-.7 5.1-.7"/><path clip-path="url(#V)" fill="none" stroke="#FFA700" stroke-width=".623" stroke-linecap="round" stroke-linejoin="round" stroke-miterlimit="10" d="M832.7 135v8.2c0 .5-2.4.8-5.5.8-3 0-5.5-.4-5.5-.8V135s3.3.7 5.9.7c2.8-.1 5.1-.7 5.1-.7z"/><defs><path id="W" d="M827.7 183.4h11.7v11h-11.7z"/></defs><clipPath id="X"><use xlink:href="#W" overflow="visible"/></clipPath><path clip-path="url(#X)" fill="#152740" d="M839 184.6c0 .1 0 .1-.1.2-.5.4-2.7.7-5.3.7-2.6 0-4.8-.3-5.3-.7-.1-.1-.1-.1-.1-.2 0-.5 2.4-.8 5.5-.8 2.8 0 5.3.4 5.3.8"/><path clip-path="url(#X)" fill="none" stroke="#FFA700" stroke-width=".623" stroke-linecap="round" stroke-linejoin="round" stroke-miterlimit="10" d="M839 184.6c0 .1 0 .1-.1.2-.5.4-2.7.7-5.3.7-2.6 0-4.8-.3-5.3-.7-.1-.1-.1-.1-.1-.2 0-.5 2.4-.8 5.5-.8 2.8 0 5.3.4 5.3.8z"/><path clip-path="url(#X)" fill="#152740" d="M839 185v8.2c0 .5-2.4.8-5.5.8-3 0-5.5-.4-5.5-.8V185s3.3.7 5.9.7c2.8 0 5.1-.7 5.1-.7"/><path clip-path="url(#X)" fill="none" stroke="#FFA700" stroke-width=".623" stroke-linecap="round" stroke-linejoin="round" stroke-miterlimit="10" d="M839 185v8.2c0 .5-2.4.8-5.5.8-3 0-5.5-.4-5.5-.8V185s3.3.7 5.9.7c2.8 0 5.1-.7 5.1-.7z"/><defs><path id="Y" d="M820.2 236h11.7v11h-11.7z"/></defs><clipPath id="Z"><use xlink:href="#Y" overflow="visible"/></clipPath><path clip-path="url(#Z)" fill="#152740" d="M831.5 237.2c0 .1 0 .1-.1.2-.5.4-2.7.7-5.3.7s-4.8-.3-5.3-.7c-.1-.1-.1-.1-.1-.2 0-.5 2.4-.8 5.5-.8s5.3.3 5.3.8"/><path clip-path="url(#Z)" fill="none" stroke="#FFA700" stroke-width=".623" stroke-linecap="round" stroke-linejoin="round" stroke-miterlimit="10" d="M831.5 237.2c0 .1 0 .1-.1.2-.5.4-2.7.7-5.3.7s-4.8-.3-5.3-.7c-.1-.1-.1-.1-.1-.2 0-.5 2.4-.8 5.5-.8s5.3.3 5.3.8z"/><path clip-path="url(#Z)" fill="#152740" d="M831.5 237.6v8.2c0 .5-2.4.8-5.5.8s-5.5-.4-5.5-.8v-8.2s3.3.7 5.9.7 5.1-.7 5.1-.7"/><path clip-path="url(#Z)" fill="none" stroke="#FFA700" stroke-width=".623" stroke-linecap="round" stroke-linejoin="round" stroke-miterlimit="10" d="M831.5 237.6v8.2c0 .5-2.4.8-5.5.8s-5.5-.4-5.5-.8v-8.2s3.3.7 5.9.7 5.1-.7 5.1-.7z"/><defs><path id="aa" d="M802.7 278.5h11.7v11h-11.7z"/></defs><clipPath id="ab"><use xlink:href="#aa" overflow="visible"/></clipPath><path clip-path="url(#ab)" fill="#152740" d="M814 279.7c0 .1 0 .1-.1.2-.5.4-2.7.7-5.3.7-2.6 0-4.8-.3-5.3-.7-.1-.1-.1-.1-.1-.2 0-.5 2.4-.8 5.5-.8 2.8 0 5.3.4 5.3.8"/><path clip-path="url(#ab)" fill="none" stroke="#FFA700" stroke-width=".623" stroke-linecap="round" stroke-linejoin="round" stroke-miterlimit="10" d="M814 279.7c0 .1 0 .1-.1.2-.5.4-2.7.7-5.3.7-2.6 0-4.8-.3-5.3-.7-.1-.1-.1-.1-.1-.2 0-.5 2.4-.8 5.5-.8 2.8 0 5.3.4 5.3.8z"/><path clip-path="url(#ab)" fill="#152740" d="M814 280.1v8.2c0 .5-2.4.8-5.5.8-3 0-5.5-.4-5.5-.8v-8.2s3.3.7 5.9.7c2.7 0 5.1-.7 5.1-.7"/><path clip-path="url(#ab)" fill="none" stroke="#FFA700" stroke-width=".623" stroke-linecap="round" stroke-linejoin="round" stroke-miterlimit="10" d="M814 280.1v8.2c0 .5-2.4.8-5.5.8-3 0-5.5-.4-5.5-.8v-8.2s3.3.7 5.9.7c2.7 0 5.1-.7 5.1-.7z"/><defs><path id="ac" d="M770.1 317.3h11.7v11h-11.7z"/></defs><clipPath id="ad"><use xlink:href="#ac" overflow="visible"/></clipPath><path clip-path="url(#ad)" fill="#152740" d="M781.4 318.5c0 .1 0 .1-.1.2-.5.4-2.7.7-5.3.7s-4.8-.3-5.3-.7c-.1-.1-.1-.1-.1-.2 0-.5 2.4-.8 5.5-.8 2.9 0 5.3.4 5.3.8"/><path clip-path="url(#ad)" fill="none" stroke="#FFA700" stroke-width=".623" stroke-linecap="round" stroke-linejoin="round" stroke-miterlimit="10" d="M781.4 318.5c0 .1 0 .1-.1.2-.5.4-2.7.7-5.3.7s-4.8-.3-5.3-.7c-.1-.1-.1-.1-.1-.2 0-.5 2.4-.8 5.5-.8 2.9 0 5.3.4 5.3.8z"/><path clip-path="url(#ad)" fill="#152740" d="M781.4 318.9v8.2c0 .5-2.4.8-5.5.8s-5.5-.4-5.5-.8v-8.2s3.3.7 5.9.7 5.1-.7 5.1-.7"/><path clip-path="url(#ad)" fill="none" stroke="#FFA700" stroke-width=".623" stroke-linecap="round" stroke-linejoin="round" stroke-miterlimit="10" d="M781.4 318.9v8.2c0 .5-2.4.8-5.5.8s-5.5-.4-5.5-.8v-8.2s3.3.7 5.9.7 5.1-.7 5.1-.7z"/><defs><path id="ae" d="M693.8 358.6h11.7v11h-11.7z"/></defs><clipPath id="af"><use xlink:href="#ae" overflow="visible"/></clipPath><path clip-path="url(#af)" fill="#152740" d="M705.1 359.8c0 .1 0 .1-.1.2-.5.4-2.7.7-5.3.7-2.6 0-4.8-.3-5.3-.7-.1-.1-.1-.1-.1-.2 0-.5 2.4-.8 5.5-.8 2.8 0 5.3.3 5.3.8"/><path clip-path="url(#af)" fill="none" stroke="#FFA700" stroke-width=".623" stroke-linecap="round" stroke-linejoin="round" stroke-miterlimit="10" d="M705.1 359.8c0 .1 0 .1-.1.2-.5.4-2.7.7-5.3.7-2.6 0-4.8-.3-5.3-.7-.1-.1-.1-.1-.1-.2 0-.5 2.4-.8 5.5-.8 2.8 0 5.3.3 5.3.8z"/><path clip-path="url(#af)" fill="#152740" d="M705.1 360.2v8.2c0 .5-2.4.8-5.5.8-3 0-5.5-.4-5.5-.8v-8.2s3.3.7 5.9.7 5.1-.7 5.1-.7"/><path clip-path="url(#af)" fill="none" stroke="#FFA700" stroke-width=".623" stroke-linecap="round" stroke-linejoin="round" stroke-miterlimit="10" d="M705.1 360.2v8.2c0 .5-2.4.8-5.5.8-3 0-5.5-.4-5.5-.8v-8.2s3.3.7 5.9.7 5.1-.7 5.1-.7z"/><defs><path id="ag" d="M532.4 43.2h11.7v11h-11.7z"/></defs><clipPath id="ah"><use xlink:href="#ag" overflow="visible"/></clipPath><path clip-path="url(#ah)" fill="#152740" d="M532.7 44.5c0 .1 0 .1.1.2.5.4 2.7.7 5.3.7 2.6 0 4.8-.3 5.3-.7.1-.1.1-.1.1-.2 0-.5-2.4-.8-5.5-.8-2.8-.1-5.3.3-5.3.8"/><path clip-path="url(#ah)" fill="none" stroke="#FFA700" stroke-width=".623" stroke-linecap="round" stroke-linejoin="round" stroke-miterlimit="10" d="M532.7 44.5c0 .1 0 .1.1.2.5.4 2.7.7 5.3.7 2.6 0 4.8-.3 5.3-.7.1-.1.1-.1.1-.2 0-.5-2.4-.8-5.5-.8-2.8-.1-5.3.3-5.3.8z"/><path clip-path="url(#ah)" fill="#152740" d="M532.7 44.9v8.2c0 .5 2.4.8 5.5.8 3 0 5.5-.4 5.5-.8v-8.2s-3.3.7-5.9.7c-2.7-.1-5.1-.7-5.1-.7"/><path clip-path="url(#ah)" fill="none" stroke="#FFA700" stroke-width=".623" stroke-linecap="round" stroke-linejoin="round" stroke-miterlimit="10" d="M532.7 44.9v8.2c0 .5 2.4.8 5.5.8 3 0 5.5-.4 5.5-.8v-8.2s-3.3.7-5.9.7c-2.7-.1-5.1-.7-5.1-.7z"/><defs><path id="ai" d="M576.2 19.5h11.7v11h-11.7z"/></defs><clipPath id="aj"><use xlink:href="#ai" overflow="visible"/></clipPath><path clip-path="url(#aj)" fill="#152740" d="M576.5 20.7c0 .1 0 .1.1.2.5.4 2.7.7 5.3.7s4.8-.3 5.3-.7c.1-.1.1-.1.1-.2 0-.5-2.4-.8-5.5-.8-2.8 0-5.3.3-5.3.8"/><path clip-path="url(#aj)" fill="none" stroke="#FFA700" stroke-width=".623" stroke-linecap="round" stroke-linejoin="round" stroke-miterlimit="10" d="M576.5 20.7c0 .1 0 .1.1.2.5.4 2.7.7 5.3.7s4.8-.3 5.3-.7c.1-.1.1-.1.1-.2 0-.5-2.4-.8-5.5-.8-2.8 0-5.3.3-5.3.8z"/><path clip-path="url(#aj)" fill="#152740" d="M576.5 21.1v8.2c0 .5 2.4.8 5.5.8 3 0 5.5-.4 5.5-.8v-8.2s-3.3.7-5.9.7c-2.7-.1-5.1-.7-5.1-.7"/><path clip-path="url(#aj)" fill="none" stroke="#FFA700" stroke-width=".623" stroke-linecap="round" stroke-linejoin="round" stroke-miterlimit="10" d="M576.5 21.1v8.2c0 .5 2.4.8 5.5.8 3 0 5.5-.4 5.5-.8v-8.2s-3.3.7-5.9.7c-2.7-.1-5.1-.7-5.1-.7z"/><defs><path id="ak" d="M625 4.4h11.7v11H625z"/></defs><clipPath id="al"><use xlink:href="#ak" overflow="visible"/></clipPath><path clip-path="url(#al)" fill="#152740" d="M625.3 5.7c0 .1 0 .1.1.2.5.4 2.7.7 5.3.7s4.8-.3 5.3-.7c.1-.1.1-.1.1-.2 0-.5-2.4-.8-5.5-.8s-5.3.3-5.3.8"/><path clip-path="url(#al)" fill="none" stroke="#FFA700" stroke-width=".623" stroke-linecap="round" stroke-linejoin="round" stroke-miterlimit="10" d="M625.3 5.7c0 .1 0 .1.1.2.5.4 2.7.7 5.3.7s4.8-.3 5.3-.7c.1-.1.1-.1.1-.2 0-.5-2.4-.8-5.5-.8s-5.3.3-5.3.8z"/><path clip-path="url(#al)" fill="#152740" d="M625.3 6.1v8.2c0 .5 2.4.8 5.5.8s5.5-.4 5.5-.8V6.1s-3.3.7-5.9.7c-2.7-.1-5.1-.7-5.1-.7"/><path clip-path="url(#al)" fill="none" stroke="#FFA700" stroke-width=".623" stroke-linecap="round" stroke-linejoin="round" stroke-miterlimit="10" d="M625.3 6.1v8.2c0 .5 2.4.8 5.5.8s5.5-.4 5.5-.8V6.1s-3.3.7-5.9.7c-2.7-.1-5.1-.7-5.1-.7z"/><defs><path id="am" d="M494.8 87h11.7v11h-11.7z"/></defs><clipPath id="an"><use xlink:href="#am" overflow="visible"/></clipPath><path clip-path="url(#an)" fill="#152740" d="M495.2 88.3c0 .1 0 .1.1.2.5.4 2.7.7 5.3.7s4.8-.3 5.3-.7c.1-.1.1-.1.1-.2 0-.5-2.4-.8-5.5-.8-2.9-.1-5.3.3-5.3.8"/><path clip-path="url(#an)" fill="none" stroke="#FFA700" stroke-width=".623" stroke-linecap="round" stroke-linejoin="round" stroke-miterlimit="10" d="M495.2 88.3c0 .1 0 .1.1.2.5.4 2.7.7 5.3.7s4.8-.3 5.3-.7c.1-.1.1-.1.1-.2 0-.5-2.4-.8-5.5-.8-2.9-.1-5.3.3-5.3.8z"/><path clip-path="url(#an)" fill="#152740" d="M495.2 88.7v8.2c0 .5 2.4.8 5.5.8s5.5-.4 5.5-.8v-8.2s-3.3.7-5.9.7-5.1-.7-5.1-.7"/><path clip-path="url(#an)" fill="none" stroke="#FFA700" stroke-width=".623" stroke-linecap="round" stroke-linejoin="round" stroke-miterlimit="10" d="M495.2 88.7v8.2c0 .5 2.4.8 5.5.8s5.5-.4 5.5-.8v-8.2s-3.3.7-5.9.7-5.1-.7-5.1-.7z"/><defs><path id="ao" d="M474.8 132.1h11.7v11h-11.7z"/></defs><clipPath id="ap"><use xlink:href="#ao" overflow="visible"/></clipPath><path clip-path="url(#ap)" fill="#152740" d="M475.2 133.3c0 .1 0 .1.1.2.5.4 2.7.7 5.3.7s4.8-.3 5.3-.7c.1-.1.1-.1.1-.2 0-.5-2.4-.8-5.5-.8-2.9 0-5.3.3-5.3.8"/><path clip-path="url(#ap)" fill="none" stroke="#FFA700" stroke-width=".623" stroke-linecap="round" stroke-linejoin="round" stroke-miterlimit="10" d="M475.2 133.3c0 .1 0 .1.1.2.5.4 2.7.7 5.3.7s4.8-.3 5.3-.7c.1-.1.1-.1.1-.2 0-.5-2.4-.8-5.5-.8-2.9 0-5.3.3-5.3.8z"/><path clip-path="url(#ap)" fill="#152740" d="M475.2 133.7v8.2c0 .5 2.4.8 5.5.8s5.5-.4 5.5-.8v-8.2s-3.3.7-5.9.7-5.1-.7-5.1-.7"/><path clip-path="url(#ap)" fill="none" stroke="#FFA700" stroke-width=".623" stroke-linecap="round" stroke-linejoin="round" stroke-miterlimit="10" d="M475.2 133.7v8.2c0 .5 2.4.8 5.5.8s5.5-.4 5.5-.8v-8.2s-3.3.7-5.9.7-5.1-.7-5.1-.7z"/><defs><path id="aq" d="M466 184.6h11.7v11H466z"/></defs><clipPath id="ar"><use xlink:href="#aq" overflow="visible"/></clipPath><path clip-path="url(#ar)" fill="#152740" d="M466.4 185.9c0 .1 0 .1.1.2.5.4 2.7.7 5.3.7 2.6 0 4.8-.3 5.3-.7.1-.1.1-.1.1-.2 0-.5-2.4-.8-5.5-.8s-5.3.3-5.3.8"/><path clip-path="url(#ar)" fill="none" stroke="#FFA700" stroke-width=".623" stroke-linecap="round" stroke-linejoin="round" stroke-miterlimit="10" d="M466.4 185.9c0 .1 0 .1.1.2.5.4 2.7.7 5.3.7 2.6 0 4.8-.3 5.3-.7.1-.1.1-.1.1-.2 0-.5-2.4-.8-5.5-.8s-5.3.3-5.3.8z"/><path clip-path="url(#ar)" fill="#152740" d="M466.4 186.3v8.2c0 .5 2.4.8 5.5.8 3 0 5.5-.4 5.5-.8v-8.2s-3.3.7-5.9.7c-2.7-.1-5.1-.7-5.1-.7"/><path clip-path="url(#ar)" fill="none" stroke="#FFA700" stroke-width=".623" stroke-linecap="round" stroke-linejoin="round" stroke-miterlimit="10" d="M466.4 186.3v8.2c0 .5 2.4.8 5.5.8 3 0 5.5-.4 5.5-.8v-8.2s-3.3.7-5.9.7c-2.7-.1-5.1-.7-5.1-.7z"/><defs><path id="as" d="M474.8 236h11.7v11h-11.7z"/></defs><clipPath id="at"><use xlink:href="#as" overflow="visible"/></clipPath><path clip-path="url(#at)" fill="#152740" d="M475.2 237.2c0 .1 0 .1.1.2.5.4 2.7.7 5.3.7s4.8-.3 5.3-.7c.1-.1.1-.1.1-.2 0-.5-2.4-.8-5.5-.8-2.9-.1-5.3.3-5.3.8"/><path clip-path="url(#at)" fill="none" stroke="#FFA700" stroke-width=".623" stroke-linecap="round" stroke-linejoin="round" stroke-miterlimit="10" d="M475.2 237.2c0 .1 0 .1.1.2.5.4 2.7.7 5.3.7s4.8-.3 5.3-.7c.1-.1.1-.1.1-.2 0-.5-2.4-.8-5.5-.8-2.9-.1-5.3.3-5.3.8z"/><path clip-path="url(#at)" fill="#152740" d="M475.2 237.6v8.2c0 .5 2.4.8 5.5.8s5.5-.4 5.5-.8v-8.2s-3.3.7-5.9.7-5.1-.7-5.1-.7"/><path clip-path="url(#at)" fill="none" stroke="#FFA700" stroke-width=".623" stroke-linecap="round" stroke-linejoin="round" stroke-miterlimit="10" d="M475.2 237.6v8.2c0 .5 2.4.8 5.5.8s5.5-.4 5.5-.8v-8.2s-3.3.7-5.9.7-5.1-.7-5.1-.7z"/><defs><path id="au" d="M494.8 282.3h11.7v11h-11.7z"/></defs><clipPath id="av"><use xlink:href="#au" overflow="visible"/></clipPath><path clip-path="url(#av)" fill="#152740" d="M495.2 283.5c0 .1 0 .1.1.2.5.4 2.7.7 5.3.7s4.8-.3 5.3-.7c.1-.1.1-.1.1-.2 0-.5-2.4-.8-5.5-.8-2.9-.1-5.3.3-5.3.8"/><path clip-path="url(#av)" fill="none" stroke="#FFA700" stroke-width=".623" stroke-linecap="round" stroke-linejoin="round" stroke-miterlimit="10" d="M495.2 283.5c0 .1 0 .1.1.2.5.4 2.7.7 5.3.7s4.8-.3 5.3-.7c.1-.1.1-.1.1-.2 0-.5-2.4-.8-5.5-.8-2.9-.1-5.3.3-5.3.8z"/><path clip-path="url(#av)" fill="#152740" d="M495.2 283.9v8.2c0 .5 2.4.8 5.5.8s5.5-.4 5.5-.8v-8.2s-3.3.7-5.9.7-5.1-.7-5.1-.7"/><path clip-path="url(#av)" fill="none" stroke="#FFA700" stroke-width=".623" stroke-linecap="round" stroke-linejoin="round" stroke-miterlimit="10" d="M495.2 283.9v8.2c0 .5 2.4.8 5.5.8s5.5-.4 5.5-.8v-8.2s-3.3.7-5.9.7-5.1-.7-5.1-.7z"/><defs><path id="aw" d="M532.4 323.6h11.7v11h-11.7z"/></defs><clipPath id="ax"><use xlink:href="#aw" overflow="visible"/></clipPath><path clip-path="url(#ax)" fill="#152740" d="M532.7 324.8c0 .1 0 .1.1.2.5.4 2.7.7 5.3.7 2.6 0 4.8-.3 5.3-.7.1-.1.1-.1.1-.2 0-.5-2.4-.8-5.5-.8-2.8-.1-5.3.3-5.3.8"/><path clip-path="url(#ax)" fill="none" stroke="#FFA700" stroke-width=".623" stroke-linecap="round" stroke-linejoin="round" stroke-miterlimit="10" d="M532.7 324.8c0 .1 0 .1.1.2.5.4 2.7.7 5.3.7 2.6 0 4.8-.3 5.3-.7.1-.1.1-.1.1-.2 0-.5-2.4-.8-5.5-.8-2.8-.1-5.3.3-5.3.8z"/><path clip-path="url(#ax)" fill="#152740" d="M532.7 325.2v8.2c0 .5 2.4.8 5.5.8 3 0 5.5-.4 5.5-.8v-8.2s-3.3.7-5.9.7c-2.7-.1-5.1-.7-5.1-.7"/><path clip-path="url(#ax)" fill="none" stroke="#FFA700" stroke-width=".623" stroke-linecap="round" stroke-linejoin="round" stroke-miterlimit="10" d="M532.7 325.2v8.2c0 .5 2.4.8 5.5.8 3 0 5.5-.4 5.5-.8v-8.2s-3.3.7-5.9.7c-2.7-.1-5.1-.7-5.1-.7z"/><defs><path id="ay" d="M599.9 358.6h11.7v11h-11.7z"/></defs><clipPath id="az"><use xlink:href="#ay" overflow="visible"/></clipPath><path clip-path="url(#az)" fill="#152740" d="M600.3 359.8c0 .1 0 .1.1.2.5.4 2.7.7 5.3.7s4.8-.3 5.3-.7c.1-.1.1-.1.1-.2 0-.5-2.4-.8-5.5-.8s-5.3.3-5.3.8"/><path clip-path="url(#az)" fill="none" stroke="#FFA700" stroke-width=".623" stroke-linecap="round" stroke-linejoin="round" stroke-miterlimit="10" d="M600.3 359.8c0 .1 0 .1.1.2.5.4 2.7.7 5.3.7s4.8-.3 5.3-.7c.1-.1.1-.1.1-.2 0-.5-2.4-.8-5.5-.8s-5.3.3-5.3.8z"/><path clip-path="url(#az)" fill="#152740" d="M600.3 360.2v8.2c0 .5 2.4.8 5.5.8s5.5-.4 5.5-.8v-8.2s-3.3.7-5.9.7c-2.7 0-5.1-.7-5.1-.7"/><path clip-path="url(#az)" fill="none" stroke="#FFA700" stroke-width=".623" stroke-linecap="round" stroke-linejoin="round" stroke-miterlimit="10" d="M600.3 360.2v8.2c0 .5 2.4.8 5.5.8s5.5-.4 5.5-.8v-8.2s-3.3.7-5.9.7c-2.7 0-5.1-.7-5.1-.7z"/><circle fill="none" stroke="#FFA700" stroke-width=".5" stroke-miterlimit="10" cx="653.1" cy="185.9" r="41.1"/><circle fill="none" stroke="#FFA700" stroke-width=".5" stroke-miterlimit="10" cx="653.1" cy="185.9" r="82.5"/><circle fill="none" stroke="#FFA700" stroke-width=".5" stroke-miterlimit="10" cx="653.1" cy="185.9" r="88"/><circle fill="none" stroke="#FFA700" stroke-width=".5" stroke-miterlimit="10" cx="653.1" cy="185.9" r="46.8"/><circle fill="none" stroke="#FFA700" stroke-width=".5" stroke-miterlimit="10" cx="653.1" cy="185.9" r="128.6"/><circle fill="none" stroke="#FFA700" stroke-width=".5" stroke-miterlimit="10" cx="653.1" cy="185.9" r="135.3"/><circle fill="none" stroke="#FFA700" stroke-width="3" stroke-miterlimit="10" cx="653.1" cy="185.9" r="184.4"/><path fill="none" stroke="#FFA700" stroke-miterlimit="10" d="M650.6 186.8l.3-185.2M655.6 186.8l.3-185.2"/><path fill="none" stroke="#FFA700" stroke-width=".5" stroke-miterlimit="10" d="M650.1 155.4l6.2 6.2M656.3 161.3l-6.2 6.2M650.1 142.1l6.2 6.2M656.3 148l-6.2 6.2M650.2 128.8l6.1 6.2M656.3 134.8l-6.2 6.1M650.2 115.5l6.2 6.2M656.4 121.5l-6.2 6.1M650.2 102.2l6.2 6.2M656.4 108.2l-6.2 6.1M650.2 89l6.2 6.1M656.4 94.9l-6.2 6.1M650.2 75.7l6.2 6.1M656.4 81.6l-6.2 6.1M650.3 62.4l6.1 6.2M656.4 68.3l-6.2 6.2M650.3 49.1l6.1 6.2M656.4 55l-6.1 6.2M650.3 35.8l6.2 6.2M656.5 41.7l-6.2 6.2M650.3 22.5l6.2 6.2M656.5 28.4l-6.2 6.2M650.3 9.2l6.2 6.2M656.5 15.1l-6.2 6.2"/><path fill="none" stroke="#FFA700" stroke-miterlimit="10" d="M650.7 186.1L703.1 8.4M655.5 187.5L707.9 9.9"/><path fill="none" stroke="#FFA700" stroke-width=".5" stroke-miterlimit="10" d="M659.1 155.8l4.2 7.7M663.3 163.3l-7.6 4.1M662.8 143.1l4.2 7.7M667.1 150.5l-7.7 4.2M666.6 130.3l4.2 7.7M670.9 137.8l-7.7 4.1M670.4 117.6l4.2 7.7M674.6 125l-7.6 4.2M674.1 104.8l4.2 7.7M678.4 112.2l-7.7 4.2M677.9 92.1l4.2 7.7M682.2 99.5l-7.7 4.2M681.7 79.3l4.1 7.7M685.9 86.7l-7.7 4.2M685.4 66.6l4.2 7.7M689.7 74l-7.7 4.2M689.2 53.8l4.2 7.7M693.4 61.2l-7.6 4.2M693 41.1l4.1 7.7M697.2 48.5l-7.7 4.2M696.7 28.3l4.2 7.7M701 35.7l-7.7 4.2M700.5 15.6l4.2 7.7M704.7 23l-7.6 4.2"/><path fill="none" stroke="#FFA700" stroke-miterlimit="10" d="M651 185.4L751.3 29.7M655.2 188.1L755.5 32.4"/><path fill="none" stroke="#FFA700" stroke-width=".5" stroke-miterlimit="10" d="M667.6 158.8l1.8 8.5M669.6 167.1l-8.6 1.8M674.8 147.6l1.8 8.5M676.8 155.9l-8.6 1.8M682 136.4l1.8 8.6M684 144.7l-8.6 1.9M689.2 125.2l1.8 8.6M691.2 133.5l-8.6 1.9M696.4 114.1l1.8 8.5M698.4 122.4l-8.6 1.8M703.6 102.9l1.8 8.5M705.6 111.2L697 113M710.8 91.7l1.8 8.6M712.8 100l-8.6 1.9M718 80.5l1.8 8.6M720 88.8l-8.6 1.9M725.2 69.4l1.8 8.5M727.2 77.7l-8.6 1.8M732.4 58.2l1.8 8.5M734.4 66.5l-8.6 1.8M739.6 47l1.8 8.6M741.6 55.3l-8.6 1.9M746.8 35.8l1.8 8.6M748.8 44.1l-8.6 1.9"/><path fill="none" stroke="#FFA700" stroke-miterlimit="10" d="M651.5 184.9L791.6 63.7M654.8 188.6L794.9 67.5"/><path fill="none" stroke="#FFA700" stroke-width=".5" stroke-miterlimit="10" d="M674.9 163.9l-.6 8.8M674.5 172.5l-8.8-.6M684.9 155.3l-.6 8.7M684.5 163.8l-8.7-.6M695 146.6l-.6 8.7M694.6 155.1l-8.7-.6M705.1 137.9l-.7 8.7M704.6 146.4l-8.7-.6M715.1 129.2l-.6 8.7M714.7 137.7l-8.7-.6M725.2 120.5l-.7 8.7M724.8 129l-8.8-.6M735.2 111.8l-.6 8.7M734.8 120.3l-8.7-.6M745.3 103.1l-.6 8.7M744.9 111.6l-8.8-.6M755.4 94.4l-.7 8.7M754.9 102.9l-8.7-.6M765.4 85.7l-.6 8.7M765 94.2l-8.7-.6M775.5 77l-.7 8.7M775 85.5l-8.7-.6M785.5 68.3l-.6 8.7M785.1 76.9l-8.7-.7"/><path fill="none" stroke="#FFA700" stroke-miterlimit="10" d="M652.1 184.5l168.6-76.8M654.2 189l168.5-76.7"/><path fill="none" stroke="#FFA700" stroke-width=".5" stroke-miterlimit="10" d="M680.4 171l-3 8.2M677.6 179.1l-8.2-3.1M692.5 165.5l-3 8.2M689.7 173.6l-8.2-3.1M704.6 160l-3 8.2M701.8 168.1l-8.2-3.1M716.7 154.5l-3 8.2M713.9 162.5l-8.2-3M728.8 149l-3 8.1M726 157l-8.2-3M740.9 143.4l-3 8.2M738.1 151.5l-8.2-3M753 137.9l-3 8.2M750.2 146l-8.2-3.1M765.1 132.4l-3 8.2M762.3 140.5l-8.2-3.1M777.2 126.9l-3 8.2M774.4 135l-8.2-3.1M789.3 121.4l-3 8.2M786.5 129.5l-8.2-3.1M801.4 115.9l-3 8.2M798.6 124l-8.2-3.1M813.5 110.4l-3 8.2M810.7 118.5l-8.2-3.1"/><path fill="none" stroke="#FFA700" stroke-miterlimit="10" d="M652.8 184.3l183.4-26.2M653.5 189.2L836.9 163"/><path fill="none" stroke="#FFA700" stroke-width=".5" stroke-miterlimit="10" d="M683.8 179.3l-5.3 7M678.8 186.3l-7-5.3M697 177.4l-5.3 7M692 184.4l-7-5.3M710.1 175.6l-5.2 7M705.1 182.5l-7-5.2M723.3 173.7l-5.3 7M718.3 180.6l-7-5.2M736.4 171.8l-5.2 7M731.5 178.8l-7-5.3M749.6 169.9l-5.2 7M744.6 176.9l-7-5.3M762.8 168l-5.3 7M757.8 175l-7-5.2M775.9 166.2l-5.2 7M771 173.1l-7-5.2M789.1 164.3l-5.3 7M784.1 171.2l-7-5.2M802.3 162.4l-5.3 7M797.3 169.4l-7-5.3M815.4 160.5l-5.2 7M810.4 167.5l-7-5.3M828.6 158.7l-5.3 7M823.6 165.6l-7-5.2"/><path fill="none" stroke="#FFA700" stroke-miterlimit="10" d="M653.5 184.3l183.3 26.5M652.8 189.2l183.3 26.5"/><path fill="none" stroke="#FFA700" stroke-width=".5" stroke-miterlimit="10" d="M684.7 188.2l-7 5.3M677.9 193.5l-5.2-7M697.8 190.1l-7 5.3M691.1 195.4l-5.2-7M711 192.1l-7 5.2M704.3 197.3l-5.3-7M724.1 194l-7 5.2M717.4 199.2l-5.2-7M737.3 195.9l-7 5.2M730.6 201.1l-5.3-7M750.5 197.8l-7.1 5.2M743.7 203l-5.2-7M763.6 199.7l-7 5.2M756.9 205l-5.3-7.1M776.8 201.6l-7 5.2M770 206.9l-5.2-7.1M789.9 203.5l-7 5.2M783.2 208.8l-5.2-7M803.1 205.4l-7 5.2M796.4 210.7l-5.3-7M816.2 207.3l-7 5.2M809.5 212.6l-5.2-7M829.4 209.2l-7 5.2M822.7 214.5l-5.3-7"/><path fill="none" stroke="#FFA700" stroke-miterlimit="10" d="M654.2 184.5l168.4 77.1M652.2 189l168.4 77.1"/><path fill="none" stroke="#FFA700" stroke-width=".5" stroke-miterlimit="10" d="M683 197.1l-8.2 3M675 200.2l-3-8.2M695.1 202.6l-8.2 3M687.1 205.8l-3-8.2M707.2 208.1l-8.2 3.1M699.2 211.3l-3-8.2M719.3 213.7l-8.2 3M711.3 216.8l-3-8.2M731.3 219.2l-8.2 3M723.4 222.4l-3.1-8.2M743.4 224.7l-8.2 3.1M735.5 227.9l-3.1-8.2M755.5 230.3l-8.2 3M747.6 233.4l-3.1-8.2M767.6 235.8l-8.2 3M759.7 239l-3.1-8.2M779.7 241.3l-8.2 3.1M771.7 244.5l-3-8.2M791.8 246.9l-8.2 3M783.8 250l-3-8.2M803.9 252.4l-8.2 3.1M795.9 255.6l-3-8.2M816 257.9l-8.2 3.1M808 261.1l-3-8.2"/><path fill="none" stroke="#FFA700" stroke-miterlimit="10" d="M654.9 184.9l139.8 121.4M651.6 188.6L791.4 310"/><path fill="none" stroke="#FFA700" stroke-width=".5" stroke-miterlimit="10" d="M678.9 205l-8.7.7M670.4 205.8l-.6-8.7M688.9 213.8l-8.7.6M680.4 214.6l-.6-8.8M699 222.5l-8.8.6M690.5 223.3l-.7-8.8M709 231.2l-8.7.6M700.5 232l-.6-8.7M719.1 239.9l-8.8.6M710.5 240.7l-.6-8.7M729.1 248.6l-8.7.6M720.6 249.4l-.6-8.7M739.1 257.3l-8.7.6M730.6 258.1l-.6-8.7M749.2 266l-8.8.7M740.7 266.8l-.7-8.7M759.2 274.8l-8.7.6M750.7 275.6l-.6-8.8M769.3 283.5l-8.8.6M760.7 284.3l-.6-8.7M779.3 292.2l-8.7.6M770.8 293l-.6-8.7M789.3 300.9l-8.7.6M780.8 301.7l-.6-8.7"/><path fill="none" stroke="#FFA700" stroke-miterlimit="10" d="M655.3 185.4l100 155.9M651.1 188.1l100 155.9"/><path fill="none" stroke="#FFA700" stroke-width=".5" stroke-miterlimit="10" d="M672.7 211.5l-8.5-1.8M664.3 209.9l1.9-8.5M679.9 222.7l-8.6-1.8M671.5 221.1l1.9-8.5M687.1 233.9l-8.6-1.8M678.7 232.3l1.8-8.6M694.3 245.1l-8.6-1.8M685.9 243.5l1.8-8.6M701.4 256.3l-8.5-1.9M693 254.7l1.9-8.6M708.6 267.5l-8.5-1.9M700.2 265.9l1.9-8.6M715.8 278.7l-8.6-1.9M707.4 277.1l1.9-8.6M723 289.9l-8.6-1.9M714.6 288.2l1.8-8.5M730.1 301.1l-8.5-1.9M721.7 299.4l1.9-8.5M737.3 312.3l-8.5-1.9M728.9 310.6l1.9-8.5M744.5 323.5l-8.5-1.9M736.1 321.8l1.9-8.5M751.7 334.6l-8.6-1.8M743.3 333l1.9-8.5"/><path fill="none" stroke="#FFA700" stroke-miterlimit="10" d="M655.6 186.1l52.1 177.7M650.8 187.5l52.1 177.7"/><path fill="none" stroke="#FFA700" stroke-width=".5" stroke-miterlimit="10" d="M665 216.1l-7.7-4.2M657.4 212.1l4.2-7.7M668.7 228.8l-7.7-4.2M661.1 224.9l4.2-7.7M672.4 241.6l-7.6-4.2M664.8 237.6l4.2-7.6M676.2 254.3l-7.7-4.2M668.6 250.4l4.2-7.7M679.9 267.1l-7.7-4.2M672.3 263.2l4.2-7.7M683.6 279.8l-7.6-4.2M676 275.9l4.2-7.7M687.4 292.6l-7.7-4.2M679.8 288.7l4.2-7.7M691.1 305.4l-7.7-4.2M683.5 301.4l4.2-7.6M694.8 318.1l-7.6-4.2M687.2 314.2l4.2-7.7M698.6 330.9l-7.7-4.2M691 327l4.2-7.7M702.3 343.6l-7.7-4.2M694.7 339.7l4.2-7.7M706.1 356.4l-7.7-4.2M698.5 352.5l4.2-7.7"/><path fill="none" stroke="#FFA700" stroke-miterlimit="10" d="M655.8 186.8l-.2 185.2M650.7 186.8l-.1 185.2"/><path fill="none" stroke="#FFA700" stroke-width=".5" stroke-miterlimit="10" d="M656.2 218.2l-6.1-6.2M650.1 212.3l6.2-6.2M656.2 231.5l-6.1-6.2M650.1 225.6l6.1-6.2M656.2 244.8l-6.2-6.2M650 238.9l6.2-6.2M656.2 258.1l-6.2-6.2M650 252.2l6.2-6.2M656.2 271.4l-6.2-6.2M650 265.5l6.2-6.2M656.2 284.7l-6.2-6.2M650 278.7l6.2-6.1M656.2 298l-6.2-6.2M650 292l6.2-6.1M656.2 311.3l-6.2-6.2M650 305.3l6.2-6.1M656.2 324.5l-6.2-6.1M650 318.6l6.2-6.1M656.2 337.8l-6.2-6.1M650 331.9l6.2-6.2M656.2 351.1l-6.2-6.2M650 345.2l6.2-6.2M656.1 364.4l-6.1-6.2M650 358.5l6.2-6.2"/><path fill="none" stroke="#FFA700" stroke-miterlimit="10" d="M655.6 187.5l-52.2 177.7M650.8 186.1l-52.2 177.7"/><path fill="none" stroke="#FFA700" stroke-width=".5" stroke-miterlimit="10" d="M647.3 217.8l-4.2-7.7M643 210.4l7.7-4.2M643.5 230.5l-4.2-7.6M639.3 223.1l7.6-4.2M639.8 243.3l-4.2-7.7M635.5 235.9l7.7-4.2M636 256l-4.2-7.6M631.8 248.6l7.6-4.2M632.3 268.8l-4.2-7.7M628 261.4l7.7-4.2M628.5 281.6l-4.2-7.7M624.2 274.1l7.7-4.1M624.8 294.3l-4.2-7.7M620.5 286.9l7.7-4.2M621 307.1l-4.2-7.7M616.7 299.6l7.7-4.1M617.3 319.8l-4.2-7.7M613 312.4l7.7-4.2M613.5 332.6l-4.2-7.7M609.2 325.2l7.7-4.2M609.7 345.3l-4.1-7.7M605.5 337.9l7.7-4.2M606 358.1l-4.2-7.7M601.7 350.7l7.7-4.2"/><path fill="none" stroke="#FFA700" stroke-miterlimit="10" d="M655.3 188.2L555.1 344M651.1 185.5L550.9 341.2"/><path fill="none" stroke="#FFA700" stroke-width=".5" stroke-miterlimit="10" d="M638.8 214.9l-1.9-8.6M636.8 206.6l8.5-1.9M631.6 226l-1.9-8.5M629.6 217.7l8.5-1.8M624.4 237.2l-1.8-8.5M622.4 228.9l8.6-1.8M617.2 248.4l-1.8-8.5M615.2 240.1l8.6-1.9M610 259.6l-1.8-8.6M608 251.3l8.6-1.9M602.8 270.8l-1.8-8.6M600.8 262.5l8.6-1.9M595.6 281.9l-1.8-8.5M593.6 273.6l8.6-1.8M588.4 293.1l-1.8-8.5M586.4 284.8l8.6-1.8M581.2 304.3l-1.8-8.5M579.2 296l8.6-1.9M574 315.5l-1.8-8.6M572 307.2l8.6-1.9M566.9 326.7l-1.9-8.6M564.8 318.4l8.6-1.9M559.7 337.9l-1.9-8.6M557.7 329.5l8.5-1.8"/><path fill="none" stroke="#FFA700" stroke-miterlimit="10" d="M654.9 188.8L514.8 310M651.6 185l-140 121.2"/><path fill="none" stroke="#FFA700" stroke-width=".5" stroke-miterlimit="10" d="M631.5 209.7l.6-8.7M631.9 201.1l8.7.7M621.4 218.4l.6-8.7M621.8 209.8l8.8.7M611.4 227.1l.6-8.7M611.8 218.5l8.7.7M601.3 235.8l.6-8.7M601.7 227.2l8.8.7M591.3 244.5l.6-8.7M591.7 235.9l8.7.7M581.2 253.2l.6-8.7M581.6 244.6l8.8.7M571.2 261.9l.6-8.7M571.6 253.3l8.7.7M561.1 270.6l.6-8.7M561.5 262l8.8.7M551.1 279.3l.6-8.7M551.5 270.7l8.7.7M541 288l.6-8.7M541.4 279.4l8.7.7M531 296.7l.6-8.7M531.4 288.2l8.7.6M520.9 305.4l.6-8.7M521.3 296.9l8.7.6"/><path fill="none" stroke="#FFA700" stroke-miterlimit="10" d="M654.2 189.2L485.7 266M652.2 184.6l-168.5 76.9"/><path fill="none" stroke="#FFA700" stroke-width=".5" stroke-miterlimit="10" d="M625.9 202.6l3.1-8.2M628.7 194.6l8.2 3M613.8 208.2l3.1-8.2M616.6 200.1l8.2 3M601.7 213.7l3.1-8.2M604.5 205.6l8.2 3.1M589.6 219.2l3.1-8.2M592.4 211.1l8.2 3.1M577.5 224.7l3.1-8.2M580.3 216.6l8.2 3.1M565.4 230.2l3.1-8.2M568.2 222.2l8.2 3M553.3 235.7l3.1-8.1M556.1 227.7l8.2 3M541.2 241.3l3.1-8.2M544 233.2l8.2 3M529.1 246.8l3.1-8.2M531.9 238.7l8.2 3.1M517 252.3l3.1-8.2M519.9 244.2l8.1 3.1M504.9 257.8l3.1-8.2M507.8 249.7l8.2 3.1M492.9 263.3l3-8.2M495.7 255.3l8.2 3"/><path fill="none" stroke="#FFA700" stroke-miterlimit="10" d="M653.5 189.4l-183.3 26.2M652.8 184.4l-183.3 26.3"/><path fill="none" stroke="#FFA700" stroke-width=".5" stroke-miterlimit="10" d="M622.6 194.3l5.2-7M627.5 187.4l7 5.2M609.4 196.2l5.2-7M614.4 189.2l7 5.3M596.2 198.1l5.3-7M601.2 191.1l7 5.3M583.1 200l5.2-7M588 193l7 5.3M569.9 201.9l5.3-7M574.9 194.9l7 5.3M556.7 203.8l5.3-7M561.7 196.8l7 5.2M543.6 205.6l5.2-7M548.6 198.7l7 5.2M530.4 207.5l5.3-7M535.4 200.6l7 5.2M517.3 209.4l5.2-7M522.2 202.5l7 5.2M504.1 211.3l5.3-7M509.1 204.3l7 5.3M490.9 213.2l5.3-7M495.9 206.2l7 5.3M477.8 215.1l5.2-7M482.8 208.1l7 5.3"/><path fill="none" stroke="#FFA700" stroke-miterlimit="10" d="M652.8 189.4l-183.3-26.5M653.5 184.4L470.2 158"/><path fill="none" stroke="#FFA700" stroke-width=".5" stroke-miterlimit="10" d="M621.7 185.4l7-5.2M628.4 180.1l5.2 7M608.5 183.5l7-5.2M615.2 178.2l5.3 7M595.4 181.6l7-5.2M602.1 176.3l5.2 7M582.2 179.7l7-5.2M588.9 174.4l5.3 7M569 177.8l7-5.2M575.8 172.5l5.2 7M555.9 175.9l7-5.2M562.6 170.6l5.3 7M542.7 174l7-5.2M549.5 168.7l5.2 7M529.6 172.1l7-5.2M536.3 166.8l5.2 7M516.4 170.2l7-5.2M523.1 164.9l5.3 7M503.2 168.3l7-5.2M510 163l5.2 7.1M490.1 166.4l7-5.2M496.8 161.2l5.3 7M476.9 164.5l7-5.2M483.7 159.3l5.2 7"/><path fill="none" stroke="#FFA700" stroke-miterlimit="10" d="M652.1 189.2l-168.4-77M654.2 184.6l-168.5-77"/><path fill="none" stroke="#FFA700" stroke-width=".5" stroke-miterlimit="10" d="M623.3 176.6l8.2-3.1M631.3 173.4l3 8.2M611.3 171.1l8.2-3.1M619.2 167.9l3.1 8.2M599.2 165.5l8.2-3M607.1 162.4l3.1 8.2M587.1 160l8.2-3.1M595 156.8l3.1 8.2M575 154.5l8.2-3.1M582.9 151.3l3.1 8.2M562.9 148.9l8.2-3M570.8 145.8l3.1 8.2M550.8 143.4l8.2-3M558.7 140.3l3.1 8.1M538.7 137.9l8.2-3.1M546.6 134.7l3.1 8.2M526.6 132.4l8.2-3.1M534.6 129.2l3 8.2M514.5 126.8l8.2-3M522.5 123.7l3 8.2M502.4 121.3l8.2-3M510.4 118.1l3 8.2M490.3 115.8l8.2-3.1M498.3 112.6l3 8.2"/><path fill="none" stroke="#FFA700" stroke-miterlimit="10" d="M651.5 188.8l-140-121.4M654.8 185l-140-121.3"/><path fill="none" stroke="#FFA700" stroke-width=".5" stroke-miterlimit="10" d="M627.4 168.6l8.8-.6M636 167.8l.6 8.7M617.4 159.9l8.7-.6M625.9 159.1l.6 8.7M607.3 151.2l8.8-.6M615.9 150.4l.6 8.7M597.3 142.5l8.7-.7M605.8 141.7l.6 8.7M587.3 133.8l8.7-.7M595.8 133l.6 8.7M577.2 125.1l8.7-.7M585.7 124.2l.6 8.8M567.2 116.3l8.7-.6M575.7 115.5l.6 8.8M557.1 107.6l8.7-.6M565.6 106.8l.7 8.8M547.1 98.9l8.7-.6M555.6 98.1l.6 8.7M537 90.2l8.7-.6M545.5 89.4l.7 8.7M527 81.5l8.7-.6M535.5 80.7l.6 8.7M516.9 72.8l8.8-.6M525.4 72l.7 8.7"/><path fill="none" stroke="#FFA700" stroke-miterlimit="10" d="M651 188.2L550.9 32.4M655.2 185.5L555.1 29.7"/><path fill="none" stroke="#FFA700" stroke-width=".5" stroke-miterlimit="10" d="M633.6 162.1l8.6 1.8M642 163.7l-1.9 8.6M626.4 150.9l8.6 1.9M634.8 152.5l-1.8 8.6M619.2 139.7l8.6 1.9M627.6 141.3l-1.8 8.6M612.1 128.5l8.5 1.9M620.4 130.2l-1.8 8.5M604.9 117.3l8.5 1.9M613.3 119l-1.9 8.5M597.7 106.2l8.5 1.8M606.1 107.8l-1.9 8.5M590.5 95l8.5 1.8M598.9 96.6l-1.9 8.5M583.3 83.8l8.6 1.8M591.7 85.4l-1.9 8.6M576.1 72.6l8.6 1.9M584.5 74.2l-1.8 8.6M568.9 61.4l8.6 1.9M577.3 63l-1.8 8.6M561.7 50.2l8.6 1.9M570.1 51.9l-1.8 8.5M554.6 39l8.5 1.9M563 40.7l-1.9 8.5"/><path fill="none" stroke="#FFA700" stroke-miterlimit="10" d="M650.7 187.5L598.5 9.8M655.5 186.1L603.3 8.4"/><path fill="none" stroke="#FFA700" stroke-width=".5" stroke-miterlimit="10" d="M641.4 157.6l7.6 4.2M649 161.5l-4.2 7.7M637.6 144.8l7.7 4.2M645.2 148.7l-4.2 7.7M633.9 132.1l7.7 4.2M641.5 136l-4.2 7.7M630.1 119.3l7.7 4.2M637.7 123.2l-4.2 7.7M626.4 106.5l7.7 4.2M634 110.5l-4.2 7.6M622.6 93.8l7.7 4.2M630.2 97.7l-4.2 7.7M618.9 81l7.7 4.2M626.5 85l-4.2 7.6M615.2 68.3l7.6 4.2M622.8 72.2l-4.2 7.7M611.4 55.5l7.7 4.2M619 59.4l-4.2 7.7M607.7 42.8l7.6 4.2M615.3 46.7l-4.2 7.7M603.9 30l7.7 4.2M611.5 33.9l-4.2 7.7M600.2 17.2l7.7 4.2M607.8 21.2l-4.2 7.7"/><path fill="none" stroke="#FFA700" stroke-miterlimit="10" d="M650.6 186.8V1.6M655.6 186.8V1.6"/><path fill="none" stroke="#FFA700" stroke-width=".5" stroke-miterlimit="10" d="M650.1 155.4l6.2 6.2M656.3 161.3l-6.2 6.2M650.1 142.1l6.2 6.2M656.3 148l-6.2 6.2M650.1 128.8l6.2 6.2M656.3 134.7l-6.2 6.2M650.1 115.5l6.2 6.2M656.3 121.5l-6.2 6.1M650.1 102.2l6.2 6.2M656.3 108.2l-6.2 6.1M650.1 89l6.2 6.1M656.3 94.9l-6.2 6.1M650.1 75.7l6.2 6.1M656.3 81.6l-6.2 6.2M650.1 62.4l6.2 6.2M656.3 68.3l-6.2 6.2M650.1 49.1l6.2 6.2M656.3 55l-6.2 6.2M650.1 35.8l6.2 6.2M656.3 41.7l-6.2 6.2M650.1 22.5l6.2 6.2M656.3 28.4l-6.2 6.2M650.1 9.2l6.2 6.2M656.3 15.1l-6.2 6.2"/><path fill="#152740" d="M668.9 185.9c0-8.7-7.1-15.8-15.8-15.8-8.7 0-15.8 7.1-15.8 15.8 0 8.7 7.1 15.8 15.8 15.8 8.7 0 15.8-7.1 15.8-15.8"/><circle fill="none" stroke="#FFA700" stroke-miterlimit="10" cx="653.1" cy="185.9" r="15.8"/><circle fill="none" stroke="#FFA700" stroke-width="2" stroke-miterlimit="10" cx="653.1" cy="185.9" r="10"/><path fill="#152740" d="M753.9 388.9h-49.2l-5.9-23.7S690.5 351 653 351c-37.4 0-44 10.1-44 10.1l-6.9 27.8H553L653.1 186l-40.8 162.3c11.8-1.9 25.7-3.3 40.8-3.3 16.3 0 30.4 1.7 41.7 3.9l-41-162.9 100.1 202.9z"/><path fill="none" stroke="#FFA700" stroke-linecap="round" stroke-linejoin="round" stroke-miterlimit="10" d="M753.9 388.9h-49.2l-5.9-23.7S690.5 351 653 351c-37.4 0-44 10.1-44 10.1l-6.9 27.8H553L653.1 186l-40.8 162.3c11.8-1.9 25.7-3.3 40.8-3.3 16.3 0 30.4 1.7 41.7 3.9l-41-162.9 100.1 202.9z"/><circle fill="none" stroke="#FFA700" stroke-miterlimit="10" cx="653.1" cy="185.9" r="180.3"/><g opacity=".33"><defs><path id="aA" d="M1089.2 79.2h50.1v126.4h-50.1z"/></defs><clipPath id="aB"><use xlink:href="#aA" overflow="visible"/></clipPath><path clip-path="url(#aB)" fill="#FFA700" d="M1089.2 89.2v116.4h50.1V79.2"/></g><path fill="none" stroke="#FFA700" stroke-miterlimit="10" d="M1089.8 89.2V205h50.1V79.2"/><path fill="#152740" d="M81.2 393.9v11.3h437.9l-3 22.5h292.2v6.3h392.9v-23.8H808.3v-5H518.6l10.7-11.3H81.8l14.6-6.2H.5v6.2z"/><path fill="none" stroke="#FFA700" stroke-linecap="round" stroke-linejoin="round" stroke-miterlimit="10" d="M81.2 393.9v11.3h437.9l-3 22.5h292.2v6.3h392.9v-23.8H808.3v-5H518.6l10.7-11.3H81.8l14.6-6.2H.5v6.2zM808.3 410.8v20"/><g opacity=".33"><defs><path id="aC" d="M553 186.7h100.1v202.9H553z"/></defs><clipPath id="aD"><use xlink:href="#aC" overflow="visible"/></clipPath><path clip-path="url(#aD)" fill="#FFA700" d="M653.1 186.7l-90.7 202.8H553z"/></g><path fill="none" stroke="#FFA700" stroke-linecap="round" stroke-linejoin="round" stroke-miterlimit="10" d="M653.1 186l-90.7 202.9H553z"/><g opacity=".33"><defs><path id="aE" d="M653.8 186.7h58.9v202.9h-58.9z"/></defs><clipPath id="aF"><use xlink:href="#aE" overflow="visible"/></clipPath><path clip-path="url(#aF)" fill="#FFA700" d="M712.7 389.5l-58.9-202.8 51 202.8z"/></g><path fill="none" stroke="#FFA700" stroke-linecap="round" stroke-linejoin="round" stroke-miterlimit="10" d="M712.7 388.9L653.8 186l51 202.9z"/><path fill="none" stroke="#FFA700" stroke-width="3" stroke-miterlimit="10" d="M837.5 185.9c0-101.8-82.6-184.4-184.4-184.4"/></g></svg>