<svg xmlns="http://www.w3.org/2000/svg" viewBox="0 0 136.7 145.1"><path fill="#FFF" d="M33.7 114.7c-13.1-.2-19.7-5.8-19.7-16.9V81.5c0-7.3-2.9-11.2-8.7-11.5v-8.1c5.8-.5 8.7-4.4 8.7-11.9V34.1c0-11.2 6.6-16.9 19.8-17.1v8.6c-5.9.1-8.8 3.7-8.8 10.6v15.6c0 7.5-3.7 12.1-11 13.8v.2c7.4 1.6 11 6.2 11 13.7V95c0 4 .7 6.8 2 8.5 1.3 1.7 3.6 2.6 6.9 2.6v8.6zM131.4 69.9c-5.7.4-8.6 4.2-8.6 11.5v16.4c0 11.1-6.5 16.7-19.6 16.9v-8.5c3.2-.1 5.5-1 6.9-2.7 1.3-1.7 2-4.5 2-8.4V79.6c0-7.5 3.6-12.1 10.9-13.7v-.2c-7.4-1.7-11-6.3-11-13.8V36.2c0-6.9-3-10.4-8.9-10.6V17c13.1.1 19.6 5.8 19.6 17.1V50c0 7.5 2.9 11.4 8.6 11.8v8.1z"/><g fill="#FFF"><path d="M49.1 37.9h7.1v36.8c0 14.6-7.2 19.1-16.7 19.1-2.6 0-5.8-.6-7.6-1.3l1.1-5.8c1.5.6 3.6 1.1 6 1.1 6.4 0 10.1-2.9 10.1-13.6V37.9zM67 84.3c3.2 2 7.8 3.6 12.7 3.6 7.3 0 11.5-3.8 11.5-9.4 0-5.1-2.9-8.1-10.4-10.9-9-3.2-14.5-7.8-14.5-15.6 0-8.6 7.1-14.9 17.8-14.9 5.6 0 9.7 1.3 12.2 2.7l-2 5.8c-1.8-1-5.5-2.6-10.5-2.6-7.5 0-10.4 4.5-10.4 8.2 0 5.1 3.3 7.7 10.9 10.6 9.3 3.6 14 8.1 14 16.2 0 8.5-6.3 15.8-19.3 15.8-5.3 0-11.1-1.6-14-3.5l2-6z"/></g></svg>