<svg id="bg" xmlns="http://www.w3.org/2000/svg" viewBox="0 0 2323.5 510"><defs><style>.cls-1,.cls-16,.cls-2,.cls-32,.cls-4{fill:none}.cls-12,.cls-14,.cls-16,.cls-17,.cls-2,.cls-26,.cls-27{stroke:#fff}.cls-12,.cls-14,.cls-16,.cls-17,.cls-18,.cls-19,.cls-2,.cls-26,.cls-27,.cls-32,.cls-4{stroke-miterlimit:10}.cls-3{fill:#014467}.cls-4{stroke:#03324c}.cls-12,.cls-26,.cls-5{fill:#03324c}.cls-6,.cls-9{fill:#178fcf}.cls-14,.cls-19,.cls-23,.cls-6{opacity:.2}.cls-13,.cls-15,.cls-17,.cls-27,.cls-28,.cls-7{opacity:.4}.cls-13,.cls-7{fill:url(#Whitelines)}.cls-8{opacity:.18;fill:url(#Whitelines-3)}.cls-9{opacity:.1}.cls-10{fill:url(#dark_Blue_lines)}.cls-11{fill:url(#blue_windows)}.cls-12,.cls-13{fill-rule:evenodd}.cls-12,.cls-16,.cls-26,.cls-31,.cls-32{opacity:.5}.cls-14,.cls-29{fill:#0b598a}.cls-15,.cls-24{fill:url(#Whitelines-7)}.cls-16,.cls-25{stroke-linecap:round}.cls-17,.cls-22,.cls-25{fill:#55a4db}.cls-18{fill:#144372}.cls-18,.cls-19,.cls-25{stroke:#0b598a}.cls-19{fill:#3a91ce}.cls-20{opacity:.3}.cls-21{fill:#223c49}.cls-22{opacity:.33}.cls-25{fill-opacity:.33;stroke-linejoin:round;stroke-width:1.25px;opacity:.51}.cls-27{fill:#126fa1}.cls-28{fill:url(#Whitelines-13)}.cls-30{opacity:.8}.cls-31{fill:#1c272d}.cls-32{stroke:#f6f6f6}.cls-33{fill:#0c4260}</style><pattern id="Whitelines" data-name="Whitelines" width="72" height="72" patternTransform="matrix(.69 -.75 .55 .6 -2.12 837.77)" patternUnits="userSpaceOnUse" viewBox="0 0 72 72"><path class="cls-1" d="M0 0h72v72H0z"/><path class="cls-2" d="M0 72h72M0 0h72M0 6h72M0 12h72M0 18h72M0 24h72M0 30h72M0 36h72M0 42h72M0 48h72M0 54h72M0 60h72M0 66h72M0 72h72M0 0h72"/></pattern><pattern id="Whitelines-3" data-name="Whitelines" width="72" height="72" patternTransform="matrix(.82 -.79 .65 .63 -53.32 784.22)" patternUnits="userSpaceOnUse" viewBox="0 0 72 72"><path class="cls-1" d="M0 0h72v72H0z"/><path class="cls-2" d="M0 72h72M0 0h72M0 6h72M0 12h72M0 18h72M0 24h72M0 30h72M0 36h72M0 42h72M0 48h72M0 54h72M0 60h72M0 66h72M0 72h72M0 0h72"/></pattern><pattern id="dark_Blue_lines" data-name="dark Blue lines" width="72" height="72" patternTransform="matrix(.75 -.73 .75 .73 -144.79 778.98)" patternUnits="userSpaceOnUse" viewBox="0 0 72 72"><path class="cls-1" d="M0 0h72v72H0z"/><path class="cls-4" d="M0 72h72M0 0h72M0 6h72M0 12h72M0 18h72M0 24h72M0 30h72M0 36h72M0 42h72M0 48h72M0 54h72M0 60h72M0 66h72M0 72h72M0 0h72"/></pattern><pattern id="blue_windows" data-name="blue windows" width="20" height="20" patternTransform="matrix(.5 0 0 .5 16.7 67.57)" patternUnits="userSpaceOnUse" viewBox="0 0 20 20"><path class="cls-1" d="M0 0h20v20H0z"/><path class="cls-3" d="M17.28 4.11h5.44V15.9h-5.44zM7.28 4.11h5.44V15.9H7.28zM-2.72 4.11h5.44V15.9h-5.44z"/></pattern><pattern id="Whitelines-7" data-name="Whitelines" width="72" height="72" patternTransform="matrix(.71 -.71 .57 .57 -15.52 780.78)" patternUnits="userSpaceOnUse" viewBox="0 0 72 72"><path class="cls-1" d="M0 0h72v72H0z"/><path class="cls-2" d="M0 72h72M0 0h72M0 6h72M0 12h72M0 18h72M0 24h72M0 30h72M0 36h72M0 42h72M0 48h72M0 54h72M0 60h72M0 66h72M0 72h72M0 0h72"/></pattern><pattern id="Whitelines-13" data-name="Whitelines" width="72" height="72" patternTransform="matrix(.34 -.34 .27 .27 71.86 698.34)" patternUnits="userSpaceOnUse" viewBox="0 0 72 72"><path class="cls-1" d="M0 0h72v72H0z"/><path class="cls-2" d="M0 72h72M0 0h72M0 6h72M0 12h72M0 18h72M0 24h72M0 30h72M0 36h72M0 42h72M0 48h72M0 54h72M0 60h72M0 66h72M0 72h72M0 0h72"/></pattern></defs><title>SkylineBlueprint_finalIllustration5</title><path class="cls-5" d="M-159 0h2645v510H-159z"/><path class="cls-5" d="M1318 374v-40h107v-7h9v6h4v-8.15l10 .5V339h25v-8h27v5h36v38h-218z"/><path class="cls-6" d="M2018 219.35V468h35V228.85l-35-9.5z"/><path class="cls-5" d="M1884 106v329.35l-18-18.39V106h18zM426 297h89v141h-89z"/><path class="cls-7" d="M379 339h45v58h-45z"/><path class="cls-8" d="M1884 436.35l49 26.5V65.35l-49 10.28v360.72z"/><path class="cls-5" d="M1751 372.56l-44-7.1V282h44v90.56zM1971.67 468c.82-1-.25-165.85-.25-165.85l11.58-14.23V468h-11.33z"/><path class="cls-9" d="M2143 376h106v91h-106z"/><path class="cls-10" d="M2142 379V275h-63v193h181v-89h-118z"/><path class="cls-5" d="M134 411h78v27h-78z"/><path class="cls-3" d="M357.68 146.3l2.33 299.05L379 422.44V206.61l-21.32-60.31zM308 393h-51v-66.23l51 33.55V393z"/><path class="cls-11" d="M80 336h48v90H80z"/><path class="cls-5" d="M1085 338.37V273h-15l.5-92h42.5v-60h20v-13h25V97h44v14h7V93h43v15h36v19.5l19.07-14.5h37.43l-.5 42h19v17h23l-.04 21h9.54l-.5 9h27v43h-43v25h-40v69h-23v36h-231v-36.63z"/><path class="cls-12" d="M882 269.5h131.5v-91h-6v-27.53l-7 7.24V120.5h37v19h10v9h18v17h12v224.47l-46.77-26.1M776.24 89.61l49.26 8.63-.83 248.26"/><path class="cls-13" d="M776.12 88.72l48.04 10.01L825.67 373H776l.12-284.28z"/><path class="cls-5" d="M1420 222h181v-70.65l51-9.77V268h-103v7h-41v-13h-24v-14h-64v-26z"/><path class="cls-5" d="M1579 93.35V226h73v-83.65l-11 1.46v-41.46l-62-9z"/><path class="cls-14" d="M637 437.5h-92.5v-138h79v-14h14V367"/><path class="cls-2" d="M1640.5 144v-41.9l-61.63-8.32-80.37 8.32V222"/><path class="cls-15" d="M1578 222V93.36l-79 8.74V222h79z"/><path class="cls-16" d="M1712.5 280V150.57l-61.05-8.72-50.95 9.72v69.93h-179v-23h-27v-10h-10v-19h-22v-17h-19v-41h-37.43l-19.57 15.09V107.5h-35v-14h-43v17h-7v-13h-44v10h-25v13h-20v58h-44v91H1021M824.56 377.63l.28-114.48 5.66-18.65"/><path class="cls-2" d="M735.5 377.5h-59V235.11l34.11-8.61h24.89v151z"/><path class="cls-17" d="M710.5 227.15l-34 7.96v143.18l34-.44v-150.7z"/><path class="cls-2" d="M776.5 90v266"/><path class="cls-18" d="M544.76 299.17L527.5 303v134.5H545c0-1-.24-138.33-.24-138.33z"/><path class="cls-19" d="M544.76 299.17L527.5 303v134.5H545c0-1-.24-138.33-.24-138.33z"/><g class="cls-20"><path class="cls-21" d="M924 371V227h8v-44h8v-12h7v-9h5.32l-.38-19.19 47.06-7.08V155h14v22.8l7-.56V363"/><path class="cls-22" d="M924 371V227h8v-44h8v-12h7v-9h5.32l-.38-19.19 47.06-7.08V155h14v22.8l7-.56V363"/><path class="cls-2" d="M924.5 371V227.5h7v-44h9v-13h6v-8h5.82l-.13-19.44 47.31-7.33v18.77h13v23.3l8-.56V363"/></g><g class="cls-23"><path class="cls-24" d="M924 371V227h8v-44h8v-12h7v-9h5.32l-.38-19.19 47.06-7.08V155h14v22.8l7-.56V363"/><path class="cls-22" d="M924 371V227h8v-44h8v-12h7v-9h5.32l-.38-19.19 47.06-7.08V155h14v22.8l7-.56V363"/></g><path class="cls-5" d="M1531 376v-40h-36v-6h-27v9h-25v-15h-10v8h-4v-6h-9v7h-107v40"/><path class="cls-15" d="M1602 151v116h50V141"/><path class="cls-25" d="M1211.03 422.51l1.29 5.14"/><path class="cls-26" d="M735.5 99.11l41-10v291.28l-41 .08V99.11z"/><path class="cls-27" d="M999.51 120.74l-15.01 3.1v13.51l15.06-2.47-.05-14.14z"/><path class="cls-28" d="M999.01 120.57L984 123.84V137"/><path class="cls-29" d="M549.31 381.6l-7.31.25v-4.24l5.43-1.04 1.88 5.03z"/><path class="cls-8" d="M308 145h45v300h-45z"/><path class="cls-5" d="M-12 432h506v13H-12z"/><g class="cls-30"><path class="cls-31" d="M-11 469h2345v-38h-37v-95h-48v39h-105V273h-66v40h-24v-86.15l-34.45-9.49-35.55 9.49v60.07l-11 10.89V77h-18V60h-21.06L1885 69.81V105h-20v147h-72v60h-40v-31h-47v37h-175v-43.65l-22.59-.5.3-12.5-23.71.5V248h-64v-9h-41.2l.5 23.42-38.51.54-2 106.04H1289V266h-107v73h-125v19.85l-175 11.33V244h-51v102H689v-80h-47v92H517v-63h-92v42h-44V203.81L358.69 145H309v182h-51v-54h-46v136h-77v-82H74v100h-85"/><path class="cls-32" d="M2334 426.5h-36.5v-91h-48v39h-105v-102h-66v40h-24v-85.65l-34.45-9.49-35.55 9.49v60.07l-11 10.89V76.5h-18v-17h-21.56l-48.44 10.31v34.69h-20v147h-72v60h-40v-31h-47v37h-175v-43.15l-22.84-.5.42-12.5-23.58.5V247.5h-64v-9h-41.7l.5 23.67-38.51.42-2 105.91h-50.29v-103h-107v73h-125v20.35l-175 11.33V243.5h-51v102h-142v-80h-47v92h-125v-63h-92v42h-44V203.81l-22.81-59.31H309.5v182h-51v-54h-46v136h-77v-82h-61v100H-11"/><path class="cls-33" d="M2297 427.02v-91.1h-48v39h-105v-102h-66v40h-24v-86.15l-34.45-9.49-35.55 9.49v60.07l-11 10.89V76.92h-18v-17h-21.47L1885 69.73v35.19h-20v147h-72v60h-40v-31h-47v37h-175v-43.65l-22.75-.5.38-12.5-23.63.5v-13.85h-64v-9h-41.5l.5 23.43-38.5.53-2 106.04H1289v-103h-107v73h-125v19.85L882 370.1V243.92h-51v102H689v-80h-47v92H517v-63h-92v42h-44V203.73l-22.39-58.81H309v182h-51v-54h-46v136h-77v-82H74v100h-85v42h2345v-41.94l-37 .04z"/><path class="cls-32" d="M2334 426.49h-36.5V335.5h-48v39h-105v-102h-66v40h-24v-85.65l-34.45-9.49-35.55 9.49v60.07l-11 10.89V76.5h-18v-17h-21.97l-48.03 10.31v34.69h-20v147h-72v60h-40v-31h-47v37h-175v-43.15l-23-.5.5-12.5-23.5.5V247.5h-64v-9h-42l.5 23.67-38.5.42-2 105.91h-50v-103h-107v73h-125v20.35l-175 11.33V243.5h-51v102h-142v-80h-47v92h-125v-63h-92v42h-44V203.81l-22.89-59.31H309.5v182h-51v-54h-46v136h-77v-82h-61v100H-11"/></g></svg>