<svg id="bg_blank" data-name="bg blank" xmlns="http://www.w3.org/2000/svg" xmlns:xlink="http://www.w3.org/1999/xlink" viewBox="0 0 2323.5 510"><defs><style>.cls-1,.cls-19,.cls-2,.cls-34,.cls-4,.cls-48,.cls-55,.cls-65,.cls-66,.cls-67,.cls-68,.cls-69,.cls-70,.cls-71,.cls-73,.cls-74,.cls-75,.cls-79{fill:none}.cls-15,.cls-17,.cls-19,.cls-2,.cls-20,.cls-29,.cls-30,.cls-41,.cls-43,.cls-51,.cls-52,.cls-53,.cls-55,.cls-56,.cls-58,.cls-59,.cls-60,.cls-65,.cls-70,.cls-73,.cls-76,.cls-77,.cls-79,.cls-80,.cls-81,.cls-82{stroke:#fff}.cls-15,.cls-17,.cls-19,.cls-2,.cls-20,.cls-21,.cls-22,.cls-29,.cls-30,.cls-34,.cls-4,.cls-41,.cls-43,.cls-48,.cls-49,.cls-50,.cls-51,.cls-52,.cls-53,.cls-55,.cls-56,.cls-57,.cls-58,.cls-59,.cls-60,.cls-65,.cls-66,.cls-67,.cls-68,.cls-69,.cls-70,.cls-71,.cls-74,.cls-76,.cls-77,.cls-79,.cls-82{stroke-miterlimit:10}.cls-3{fill:#014467}.cls-4{stroke:#03324c}.cls-21,.cls-49,.cls-5,.cls-50,.cls-76{fill:#144372}.cls-6{fill:#fff}.cls-7{fill:#052738}.cls-15,.cls-29,.cls-41,.cls-43,.cls-51,.cls-52,.cls-64,.cls-8{fill:#03324c}.cls-12,.cls-36,.cls-9{fill:#178fcf}.cls-17,.cls-22,.cls-26,.cls-9{opacity:.2}.cls-10,.cls-16,.cls-18,.cls-20,.cls-30,.cls-31,.cls-38,.cls-42,.cls-45,.cls-54,.cls-62,.cls-78{opacity:.4}.cls-10,.cls-16{fill:url(#Whitelines)}.cls-11,.cls-39{opacity:.18}.cls-11{fill:url(#Whitelines-3)}.cls-12{opacity:.1}.cls-13{fill:url(#dark_Blue_lines)}.cls-14{fill:url(#blue_windows)}.cls-15,.cls-16,.cls-41,.cls-42,.cls-64,.cls-79{fill-rule:evenodd}.cls-15,.cls-19,.cls-29,.cls-33,.cls-34,.cls-35,.cls-80,.cls-81{opacity:.5}.cls-17,.cls-32,.cls-53{fill:#0b598a}.cls-18,.cls-27{fill:url(#Whitelines-7)}.cls-19,.cls-28,.cls-55,.cls-73,.cls-75,.cls-80,.cls-81{stroke-linecap:round}.cls-20,.cls-25,.cls-28,.cls-56,.cls-58,.cls-59,.cls-60{fill:#55a4db}.cls-21,.cls-22,.cls-28,.cls-57,.cls-75{stroke:#0b598a}.cls-22,.cls-57,.cls-61,.cls-82{fill:#3a91ce}.cls-23{opacity:.3}.cls-24{fill:#223c49}.cls-25{opacity:.33}.cls-28,.cls-59,.cls-60{fill-opacity:.33}.cls-28,.cls-73,.cls-75,.cls-80,.cls-81{stroke-linejoin:round}.cls-28,.cls-59,.cls-60,.cls-70,.cls-74{stroke-width:1.25px}.cls-28,.cls-58,.cls-59{opacity:.51}.cls-30,.cls-77{fill:#126fa1}.cls-31{fill:url(#Whitelines-13)}.cls-33{fill:#1c272d}.cls-34{stroke:#f6f6f6}.cls-35,.cls-47{fill:#044f81}.cls-37{fill:url(#dark_Blue_lines-3)}.cls-38,.cls-42{fill:url(#Whitelines-17)}.cls-39{fill:url(#Whitelines-19)}.cls-40{fill:url(#blue_windows-3)}.cls-44{fill:#f4f0e2}.cls-45{fill:url(#Whitelines-23)}.cls-46{fill:#11395e}.cls-48{stroke:#4b94d0}.cls-48,.cls-49,.cls-51{stroke-width:.5px}.cls-49,.cls-50{stroke:#f4f0e2}.cls-52{stroke-width:2px}.cls-54,.cls-63{fill:url(#Whitelines-25)}.cls-65,.cls-69{stroke-width:.62px}.cls-66{stroke:#1d5777}.cls-66,.cls-67{stroke-width:3.75px}.cls-67,.cls-71{stroke:#0a3e5f}.cls-68{stroke:#215b7c}.cls-69{stroke:#1b5677}.cls-71{stroke-width:2.5px}.cls-72{opacity:.35;fill:url(#dark_Blue_lines-7)}.cls-74{stroke:#fafcfd;opacity:.43}.cls-78{fill:url(#Whitelines-35)}.cls-80{fill:#14333f}.cls-81{fill:#162f38}</style><pattern id="Whitelines" data-name="Whitelines" width="72" height="72" patternTransform="matrix(.69 -.75 .55 .6 -2.12 807.78)" patternUnits="userSpaceOnUse" viewBox="0 0 72 72"><path class="cls-1" d="M0 0h72v72H0z"/><path class="cls-2" d="M0 72h72M0 0h72M0 6h72M0 12h72M0 18h72M0 24h72M0 30h72M0 36h72M0 42h72M0 48h72M0 54h72M0 60h72M0 66h72M0 72h72M0 0h72"/></pattern><pattern id="Whitelines-3" data-name="Whitelines" width="72" height="72" patternTransform="matrix(.82 -.79 .65 .63 -41.56 695.5)" patternUnits="userSpaceOnUse" viewBox="0 0 72 72"><path class="cls-1" d="M0 0h72v72H0z"/><path class="cls-2" d="M0 72h72M0 0h72M0 6h72M0 12h72M0 18h72M0 24h72M0 30h72M0 36h72M0 42h72M0 48h72M0 54h72M0 60h72M0 66h72M0 72h72M0 0h72"/></pattern><pattern id="dark_Blue_lines" data-name="dark Blue lines" width="72" height="72" patternTransform="matrix(.75 -.73 .75 .73 -144.79 721.88)" patternUnits="userSpaceOnUse" viewBox="0 0 72 72"><path class="cls-1" d="M0 0h72v72H0z"/><path class="cls-4" d="M0 72h72M0 0h72M0 6h72M0 12h72M0 18h72M0 24h72M0 30h72M0 36h72M0 42h72M0 48h72M0 54h72M0 60h72M0 66h72M0 72h72M0 0h72"/></pattern><pattern id="blue_windows" data-name="blue windows" width="20" height="20" patternTransform="matrix(.5 0 0 .5 16.7 63.57)" patternUnits="userSpaceOnUse" viewBox="0 0 20 20"><path class="cls-1" d="M0 0h20v20H0z"/><path class="cls-3" d="M17.28 4.11h5.44V15.9h-5.44zM7.28 4.11h5.44V15.9H7.28zM-2.72 4.11h5.44V15.9h-5.44z"/></pattern><pattern id="Whitelines-7" data-name="Whitelines" width="72" height="72" patternTransform="matrix(.71 -.71 .57 .57 -15.52 701.37)" patternUnits="userSpaceOnUse" viewBox="0 0 72 72"><path class="cls-1" d="M0 0h72v72H0z"/><path class="cls-2" d="M0 72h72M0 0h72M0 6h72M0 12h72M0 18h72M0 24h72M0 30h72M0 36h72M0 42h72M0 48h72M0 54h72M0 60h72M0 66h72M0 72h72M0 0h72"/></pattern><pattern id="Whitelines-13" data-name="Whitelines" width="72" height="72" patternTransform="matrix(.34 -.34 .27 .27 62.12 671.23)" patternUnits="userSpaceOnUse" viewBox="0 0 72 72"><path class="cls-1" d="M0 0h72v72H0z"/><path class="cls-2" d="M0 72h72M0 0h72M0 6h72M0 12h72M0 18h72M0 24h72M0 30h72M0 36h72M0 42h72M0 48h72M0 54h72M0 60h72M0 66h72M0 72h72M0 0h72"/></pattern><pattern id="dark_Blue_lines-3" data-name="dark Blue lines" width="72" height="72" patternTransform="rotate(-45 631.736 411.396)" patternUnits="userSpaceOnUse" viewBox="0 0 72 72"><path class="cls-1" d="M0 0h72v72H0z"/><path class="cls-4" d="M0 72h72M0 0h72M0 6h72M0 12h72M0 18h72M0 24h72M0 30h72M0 36h72M0 42h72M0 48h72M0 54h72M0 60h72M0 66h72M0 72h72M0 0h72"/></pattern><pattern id="Whitelines-17" data-name="Whitelines" width="72" height="72" patternTransform="matrix(.69 -.75 .55 .6 -81.48 720.38)" patternUnits="userSpaceOnUse" viewBox="0 0 72 72"><path class="cls-1" d="M0 0h72v72H0z"/><path class="cls-2" d="M0 72h72M0 0h72M0 6h72M0 12h72M0 18h72M0 24h72M0 30h72M0 36h72M0 42h72M0 48h72M0 54h72M0 60h72M0 66h72M0 72h72M0 0h72"/></pattern><pattern id="Whitelines-19" data-name="Whitelines" width="72" height="72" patternTransform="matrix(.82 -.79 .65 .63 -135.63 603.77)" patternUnits="userSpaceOnUse" viewBox="0 0 72 72"><path class="cls-1" d="M0 0h72v72H0z"/><path class="cls-2" d="M0 72h72M0 0h72M0 6h72M0 12h72M0 18h72M0 24h72M0 30h72M0 36h72M0 42h72M0 48h72M0 54h72M0 60h72M0 66h72M0 72h72M0 0h72"/></pattern><pattern id="blue_windows-3" data-name="blue windows" width="20" height="20" patternTransform="matrix(.5 0 0 .5 -23.3 -7.43)" patternUnits="userSpaceOnUse" viewBox="0 0 20 20"><path class="cls-1" d="M0 0h20v20H0z"/><path class="cls-3" d="M17.28 4.11h5.44V15.9h-5.44zM7.28 4.11h5.44V15.9H7.28zM-2.72 4.11h5.44V15.9h-5.44z"/></pattern><pattern id="Whitelines-23" data-name="Whitelines" width="72" height="72" patternTransform="matrix(.3 -.3 .24 .24 -51.89 683.32)" patternUnits="userSpaceOnUse" viewBox="0 0 72 72"><path class="cls-1" d="M0 0h72v72H0z"/><path class="cls-2" d="M0 72h72M0 0h72M0 6h72M0 12h72M0 18h72M0 24h72M0 30h72M0 36h72M0 42h72M0 48h72M0 54h72M0 60h72M0 66h72M0 72h72M0 0h72"/></pattern><pattern id="Whitelines-25" data-name="Whitelines" width="72" height="72" patternTransform="matrix(.71 -.71 .57 .57 -96.98 618.91)" patternUnits="userSpaceOnUse" viewBox="0 0 72 72"><path class="cls-1" d="M0 0h72v72H0z"/><path class="cls-2" d="M0 72h72M0 0h72M0 6h72M0 12h72M0 18h72M0 24h72M0 30h72M0 36h72M0 42h72M0 48h72M0 54h72M0 60h72M0 66h72M0 72h72M0 0h72"/></pattern><pattern id="dark_Blue_lines-7" data-name="dark Blue lines" width="72" height="72" patternTransform="matrix(.79 -.71 .79 .71 -160.64 516.29)" patternUnits="userSpaceOnUse" viewBox="0 0 72 72"><path class="cls-1" d="M0 0h72v72H0z"/><path class="cls-4" d="M0 72h72M0 0h72M0 6h72M0 12h72M0 18h72M0 24h72M0 30h72M0 36h72M0 42h72M0 48h72M0 54h72M0 60h72M0 66h72M0 72h72M0 0h72"/></pattern><pattern id="Whitelines-35" data-name="Whitelines" width="72" height="72" patternTransform="matrix(.34 -.34 .27 .27 28.03 587.43)" patternUnits="userSpaceOnUse" viewBox="0 0 72 72"><path class="cls-1" d="M0 0h72v72H0z"/><path class="cls-2" d="M0 72h72M0 0h72M0 6h72M0 12h72M0 18h72M0 24h72M0 30h72M0 36h72M0 42h72M0 48h72M0 54h72M0 60h72M0 66h72M0 72h72M0 0h72"/></pattern><symbol id="New_Symbol" data-name="New Symbol" viewBox="0 0 16 14.08"><path class="cls-5" d="M8 13.83c-4 0-6.55-.49-6.76-.84a21.86 21.86 0 0 1-.9-6 21.27 21.27 0 0 1 .9-5.91C1.45.74 4 .25 8 .25s6.55.49 6.76.84a26.35 26.35 0 0 1 .69 6 25.7 25.7 0 0 1-.69 5.91c-.21.34-2.76.83-6.76.83z"/><path class="cls-6" d="M8 .5c3.9 0 6.1.45 6.53.72A25.66 25.66 0 0 1 15.2 7a25.66 25.66 0 0 1-.67 5.82c-.42.27-2.62.72-6.53.72s-6.11-.45-6.53-.72A21 21 0 0 1 .59 7a21 21 0 0 1 .88-5.82C1.89 1 4.09.5 8 .5M8 0C4.11 0 1 .47 1 1.05A21.34 21.34 0 0 0 .09 7 21.33 21.33 0 0 0 1 13c0 .58 3.11 1.05 7 1.05s7-.47 7-1.05a25.7 25.7 0 0 0 .7-6 25.7 25.7 0 0 0-.7-6c0-.53-3.11-1-7-1z"/><path class="cls-7" d="M7 1h2v12H7z"/></symbol></defs><title>SkylineBlueprint_finalIllustration5</title><path class="cls-8" d="M-159 0h2645v510H-159z"/><path class="cls-8" d="M1318 374v-40h107v-7h9v6h4v-8.15l10 .5V339h25v-8h27v5h36v38h-218z"/><path class="cls-9" d="M2018 219.35V468h35V228.85l-35-9.5z"/><path class="cls-8" d="M1884 106v329.35l-18-18.39V106h18zM426 297h89v141h-89z"/><path class="cls-10" d="M379 339h45v58h-45z"/><path class="cls-11" d="M1884 436.35l49 26.5V65.35l-49 10.28v360.72z"/><path class="cls-8" d="M1751 372.56l-44-7.1V282h44v90.56zM1971.67 468c.82-1-.25-165.85-.25-165.85l11.58-14.23V468h-11.33z"/><path class="cls-12" d="M2143 376h106v91h-106z"/><path class="cls-13" d="M2142 379V275h-63v193h181v-89h-118z"/><path class="cls-8" d="M134 411h78v27h-78z"/><path class="cls-3" d="M357.68 146.3l2.33 299.05L379 422.44V206.61l-21.32-60.31zM308 393h-51v-66.23l51 33.55V393z"/><path class="cls-14" d="M80 336h48v90H80z"/><path class="cls-8" d="M1085 338.37V273h-15l.5-92h42.5v-60h20v-13h25V97h44v14h7V93h43v15h36v19.5l19.07-14.5h37.43l-.5 42h19v17h23l-.04 21h9.54l-.5 9h27v43h-43v25h-40v69h-23v36h-231v-36.63z"/><path class="cls-15" d="M882 269.5h131.5v-91h-6v-27.53l-7 7.24V120.5h37v19h10v9h18v17h12v224.47l-46.77-26.1M776.24 89.61l49.26 8.63-.83 248.26"/><path class="cls-16" d="M776.12 88.72l48.04 10.01L825.67 373H776l.12-284.28z"/><path class="cls-8" d="M1420 222h181v-70.65l51-9.77V268h-103v7h-41v-13h-24v-14h-64v-26z"/><path class="cls-8" d="M1579 93.35V226h73v-83.65l-11 1.46v-41.46l-62-9z"/><path class="cls-17" d="M637 437.5h-92.5v-138h79v-14h14V367"/><path class="cls-2" d="M1640.5 144v-41.9l-61.63-8.32-80.37 8.32V222"/><path class="cls-18" d="M1578 222V93.36l-79 8.74V222h79z"/><path class="cls-19" d="M1712.5 280V150.57l-61.05-8.72-50.95 9.72v69.93h-179v-23h-27v-10h-10v-19h-22v-17h-19v-41h-37.43l-19.57 15.09V107.5h-35v-14h-43v17h-7v-13h-44v10h-25v13h-20v58h-44v91H1021M824.56 377.63l.28-114.48 5.66-18.65"/><path class="cls-2" d="M735.5 377.5h-59V235.11l34.11-8.61h24.89v151z"/><path class="cls-20" d="M710.5 227.15l-34 7.96v143.18l34-.44v-150.7z"/><path class="cls-2" d="M776.5 90v266"/><path class="cls-21" d="M544.76 299.17L527.5 303v134.5H545c0-1-.24-138.33-.24-138.33z"/><path class="cls-22" d="M544.76 299.17L527.5 303v134.5H545c0-1-.24-138.33-.24-138.33z"/><g class="cls-23"><path class="cls-24" d="M924 371V227h8v-44h8v-12h7v-9h5.32l-.38-19.19 47.06-7.08V155h14v22.8l7-.56V363"/><path class="cls-25" d="M924 371V227h8v-44h8v-12h7v-9h5.32l-.38-19.19 47.06-7.08V155h14v22.8l7-.56V363"/><path class="cls-2" d="M924.5 371V227.5h7v-44h9v-13h6v-8h5.82l-.13-19.44 47.31-7.33v18.77h13v23.3l8-.56V363"/></g><g class="cls-26"><path class="cls-27" d="M924 371V227h8v-44h8v-12h7v-9h5.32l-.38-19.19 47.06-7.08V155h14v22.8l7-.56V363"/><path class="cls-25" d="M924 371V227h8v-44h8v-12h7v-9h5.32l-.38-19.19 47.06-7.08V155h14v22.8l7-.56V363"/></g><path class="cls-8" d="M1531 376v-40h-36v-6h-27v9h-25v-15h-10v8h-4v-6h-9v7h-107v40"/><path class="cls-18" d="M1602 151v116h50V141"/><path class="cls-28" d="M1211.03 422.51l1.29 5.14"/><path class="cls-29" d="M735.5 99.11l41-10v291.28l-41 .08V99.11z"/><path class="cls-30" d="M999.51 120.74l-15.01 3.1v13.51l15.06-2.47-.05-14.14z"/><path class="cls-31" d="M999.01 120.57L984 123.84V137"/><path class="cls-32" d="M549.31 381.6l-7.31.25v-4.24l5.43-1.04 1.88 5.03z"/><path class="cls-11" d="M308 145h45v300h-45z"/><path class="cls-8" d="M-12 432h506v13H-12z"/><path class="cls-33" d="M-11 469h2345v-38h-37v-95h-48v39h-105V273h-66v40h-24v-86.15l-34.45-9.49-35.55 9.49v60.07l-11 10.89V77h-18V60h-21.06L1885 69.81V105h-20v147h-72v60h-40v-31h-47v37h-175v-43.65l-22.59-.5.3-12.5-23.71.5V248h-64v-9h-41.2l.5 23.42-38.51.54-2 106.04H1289V266h-107v73h-125v19.85l-175 11.33V244h-51v102H689v-80h-47v92H517v-63h-92v42h-44V203.81L358.69 145H309v182h-51v-54h-46v136h-77v-82H74v100h-85"/><path class="cls-34" d="M2334 426.5h-36.5v-91h-48v39h-105v-102h-66v40h-24v-85.65l-34.45-9.49-35.55 9.49v60.07l-11 10.89V76.5h-18v-17h-21.56l-48.44 10.31v34.69h-20v147h-72v60h-40v-31h-47v37h-175v-43.15l-22.84-.5.42-12.5-23.58.5V247.5h-64v-9h-41.7l.5 23.67-38.51.42-2 105.91h-50.29v-103h-107v73h-125v20.35l-175 11.33V243.5h-51v102h-142v-80h-47v92h-125v-63h-92v42h-44V203.81l-22.81-59.31H309.5v182h-51v-54h-46v136h-77v-82h-61v100H-11"/><path class="cls-35" d="M2297 427.02v-91.1h-48v39h-105v-102h-66v40h-24v-86.15l-34.45-9.49-35.55 9.49v60.07l-11 10.89V76.92h-18v-17h-21.47L1885 69.73v35.19h-20v147h-72v60h-40v-31h-47v37h-175v-43.65l-22.75-.5.38-12.5-23.63.5v-13.85h-64v-9h-41.5l.5 23.43-38.5.53-2 106.04H1289v-103h-107v73h-125v19.85L882 370.1V243.92h-51v102H689v-80h-47v92H517v-63h-92v42h-44V203.73l-22.39-58.81H309v182h-51v-54h-46v136h-77v-82H74v100h-85v42h2345v-41.94l-37 .04z"/><path class="cls-34" d="M2334 426.49h-36.5V335.5h-48v39h-105v-102h-66v40h-24v-85.65l-34.45-9.49-35.55 9.49v60.07l-11 10.89V76.5h-18v-17h-21.97l-48.03 10.31v34.69h-20v147h-72v60h-40v-31h-47v37h-175v-43.15l-23-.5.5-12.5-23.5.5V247.5h-64v-9h-42l.5 23.67-38.5.42-2 105.91h-50v-103h-107v73h-125v20.35l-175 11.33V243.5h-51v102h-142v-80h-47v92h-125v-63h-92v42h-44V203.81l-22.89-59.31H309.5v182h-51v-54h-46v136h-77v-82h-61v100H-11"/><path class="cls-8" d="M1318 373v-40h107v-7h9v6h4v-8.15l10 .5V338h25v-8h27v5h36v38h-218z"/><path class="cls-36" d="M2018 218.35V467h35V227.85l-35-9.5z"/><path class="cls-8" d="M1884 105v329.35l-18-18.39V105h18zM426 296h89v141h-89z"/><path class="cls-5" d="M1550 266.35V375h50l33.53-17.09 19.47 2.01-1-92.62-102-.95z"/><path class="cls-37" d="M1550 266.35V375h50l33.53-17.09 19.47 2.01-1-92.62-102-.95z"/><path class="cls-38" d="M379 338h45v58h-45z"/><path class="cls-8" d="M786 447.35v-40l249-25.19v30.19l-249 35z"/><path class="cls-5" d="M1795 254h71v212h-71z"/><path class="cls-39" d="M1884 435.35l49 26.5V64.35l-49 10.28v360.72z"/><path class="cls-8" d="M1751 371.56l-44-7.1V281h44v90.56zM1971.67 467c.82-1-.25-165.85-.25-165.85l11.58-14.23V467h-11.33z"/><path class="cls-36" d="M2143 375h109v90h-109z"/><path class="cls-37" d="M2141 378V277h-60v188h171v-87h-111z"/><path class="cls-8" d="M134 410h78v27h-78z"/><path class="cls-3" d="M357.68 145.3l2.33 299.05L379 421.44V205.61l-21.32-60.31zM308 392h-51v-66.23l51 33.55V392z"/><path class="cls-40" d="M80 335h48v90H80z"/><path class="cls-8" d="M1085 327.35V265h-15l.5-89h42.5v-57h20v-13h25V96h44v13h7V92h43v14h36v19.09l19.07-14.09h37.43l-.5 40h19v17h23l-.04 20h9.54l-.5 9h27v41h-43v24h-40v66h-23v34h-231v-34.65z"/><path class="cls-41" d="M710.5 325v-96.5h22v108h44l-.26-248.89 49.26 9.64V338.5h57v-70h131v-91h-6V150l-7 7.23V119.5h37v19h10v9h18v17h12V389l-46.5-26.13-282.73 15.77s-24.69-3.18-37.67-1.8z"/><path class="cls-42" d="M776.12 87.72l48.04 10.01L825.67 372H776l.12-284.28z"/><path class="cls-8" d="M1420 221h181v-70.65l51-9.77V267h-103v7h-41v-13h-24v-14h-64v-26z"/><path class="cls-8" d="M1579 92.35V225h73v-83.65l-11 1.46v-41.46l-62-9z"/><path class="cls-43" d="M617 43.5h-6.5v-1.77a1.56 1.56 0 0 0-.43-1.23h-1.48l-1.45-27.19-1.46 27.19h-1.48s-1.69.34-1.69 1.23v1.77h-5.29s-1.71.92-1.71 2.08v1.88s11-.63 22 0v-1.88a5.23 5.23 0 0 0-.51-2.08z"/><path class="cls-44" d="M608.55 60A215.76 215.76 0 0 1 644 62.86s-16.76-5.54-20.32-7c-4.63-1.88-5.64-4.3-5.64-4.3l4.57-3.85c-.9-1.7-15.1-1.72-15.1-1.72h-1.45s-14.2 0-15.1 1.71l4.57 3.81s-.82 2.44-5.64 4.32c-3.59 1.4-20.32 7-20.32 7A216.61 216.61 0 0 1 605 60h3.54z"/><path class="cls-8" d="M643.91 63.1a200.59 200.59 0 0 0-35.36-3.1H605a200.59 200.59 0 0 0-35.36 3.1l-.25-.85c.17-.06 16.76-5.54 20.3-6.91s4.8-3 5.2-3.67l-4.57-3.75.19-.2c.82-1.56 8.74-1.72 15.24-1.72h2c6.5 0 14.42.17 15.24 1.73l.25.27-4.56 3.71c.45.68 1.81 2.32 5.19 3.7s20.12 6.79 20.29 6.84z"/><path class="cls-6" d="M607.8 46c2 0 14 .16 14.8 1.71l-4.6 3.81s1 2.44 5.64 4.32c3.57 1.45 20.32 7 20.32 7A216.61 216.61 0 0 0 608.55 60H605a215.76 215.76 0 0 0-35.45 2.86s16.74-5.59 20.32-7c4.82-1.88 5.64-4.3 5.64-4.3L591 47.72c.82-1.55 12.75-1.72 14.8-1.72h2.2m-.2-1h-2c-14.55 0-15.37 1.66-15.68 2.25l-.38.77.63.54 3.91 3.23a10.48 10.48 0 0 1-4.71 3.14c-3.52 1.37-20.11 6.91-20.28 7l.5 1.94A217 217 0 0 1 605 61h3.54a216.68 216.68 0 0 1 35.27 2.84l.5-1.94c-.17-.06-16.76-5.54-20.26-7a11.3 11.3 0 0 1-4.69-3.17l3.88-3.19.63-.52-.38-.81c-.31-.59-1.13-2.25-15.68-2.25z"/><path class="cls-45" d="M610.09 58.94c8.1.13 15.34.7 20.9 1.3-4-1.37-8-2.74-9.53-3.37-4.9-2-6.1-4.59-6.23-4.88l-.31-.74 3.88-3.19a76.91 76.91 0 0 0-12.67-.79z"/><path class="cls-46" d="M561.64 70.14A354.43 354.43 0 0 1 602.31 68c19.15 0 36.67 1.32 50.17 3.51 0 0-2.88-1.48-4-2.11s-5.13-2-5.13-2l.67-4a240.62 240.62 0 0 0-74.37 0l.61 3.47s-5.55 1.42-8.62 3.27z"/><path class="cls-47" d="M638.57 80.84c-18.58-2-19.46-3.15-31.81-3.24-12.66-.1-13.25 1.14-31.2 2l-2.3-7c4.64-.27 18.94-1.26 33.5-1.15 13.3.1 26.84 1.1 33.45 1.58z"/><path class="cls-48" d="M626.37 85.22a129 129 0 0 0-20.29-1.47 138.8 138.8 0 0 0-16.57.94"/><path class="cls-49" d="M587.39 61.18l.47 4.37 4.92-.2-.35-4.5q-2.49.15-5.04.33zM597.47 60.64l.22 4.56 4.91-.1-.11-4.58q-2.49.04-5.02.12z"/><path class="cls-49" d="M592.43 60.86l.35 4.5 4.92-.15-.22-4.56q-2.48.07-5.05.21zM577.31 62.16l.69 3.95 4.92-.3-.6-4.19q-2.48.24-5.01.54zM582.34 61.61l.6 4.19 4.92-.25-.47-4.37q-2.51.19-5.05.43zM569.66 63.23l.61 3.47 2.83-.24-.81-3.63z"/><path class="cls-49" d="M572.3 62.83l.81 3.63c1.27-.1 2.93-.22 4.91-.35l-.71-3.94q-2.49.29-5.01.66z"/><path class="cls-50" d="M602.5 60.53l.11 4.58h4.9v-4.6c-2.01-.01-3.31-.01-5.01.02z"/><path class="cls-50" d="M607.5 60.51v4.56h6.17l.1-4.49c-2.02-.03-4.27-.06-6.27-.07z"/><path class="cls-49" d="M644 63.18s-1.83-.31-5.09-.71l-.72 4c1.74.19 3.46.41 5.14.65zM628.88 61.44l-.45 4.2q2.47.16 4.91.36l.58-4.1c-1.54-.15-3.22-.31-5.04-.46z"/><path class="cls-49" d="M633.91 61.9l-.58 4.1q2.47.21 4.89.48l.72-4c-1.42-.19-3.1-.38-5.03-.58zM623.84 61.07l-.33 4.31q2.47.11 4.92.26l.45-4.2q-2.38-.2-5.04-.37zM613.78 60.61l-.11 4.49q2.44 0 4.91.1l.22-4.4q-2.43-.12-5.02-.19z"/><path class="cls-49" d="M618.8 60.79l-.22 4.4q2.46.07 4.92.18l.33-4.31c-1.6-.06-3.28-.18-5.03-.27z"/><path class="cls-51" d="M602.53 83.61a36.28 36.28 0 0 1-2.13-6q-2.13 0-4.23.1a28.07 28.07 0 0 0 3.57 5.93z"/><path class="cls-51" d="M596.88 83.83c.94-.06 1.9-.1 2.87-.14a28.07 28.07 0 0 1-3.57-5.93q-2.33.08-4.59.2a27.09 27.09 0 0 0 5.29 5.87zM605.38 83.58c-.33-2-.6-4.74-.71-5.95H600.4a36.28 36.28 0 0 0 2.13 6zM594.34 84a30.19 30.19 0 0 1-6.88-5.78q-2 .14-3.95.32a35.25 35.25 0 0 0 8.5 5.67z"/><path class="cls-51" d="M592 84.21a35.25 35.25 0 0 1-8.5-5.67q-2.37.22-4.65.48a44.15 44.15 0 0 0 10.76 5.45zM594.34 84l2.54-.17a27.09 27.09 0 0 1-5.3-5.87q-2.09.11-4.13.26a30.19 30.19 0 0 0 6.89 5.78zM605.59 83.58h2.64c.33-2 .59-4.69.71-5.93h-4.27c.11 1.21.38 3.94.71 5.95h.22zM623.41 84.71a47 47 0 0 0 11.17-5c-1.37-.2-2.78-.38-4.21-.56a35.7 35.7 0 0 1-9 5.35z"/><path class="cls-51" d="M618.95 84.19l2.46.26a35.7 35.7 0 0 0 9-5.35q-2.24-.27-4.59-.49a29.27 29.27 0 0 1-6.87 5.58zM611.05 83.68a35.43 35.43 0 0 0 2.13-5.88q-2.1-.08-4.24-.12c-.11 1.24-.38 3.94-.71 5.93zM625.19 85a75.49 75.49 0 0 0 14.42-4.49q-2.43-.44-5-.82a47 47 0 0 1-11.17 5zM570.21 80.26s3.89 2.67 16.84 4.27a53.22 53.22 0 0 1-12-5c-1.62.21-3.26.47-4.84.73z"/><path class="cls-51" d="M588.61 84.6l1-.12A44.15 44.15 0 0 1 578.87 79q-1.92.22-3.76.48a53.22 53.22 0 0 0 12 5q2 .24 4.21.45-.83-.23-1.64-.5zM613.78 83.8a27.19 27.19 0 0 0 3.56-5.8q-2.05-.11-4.16-.19a35.43 35.43 0 0 1-2.13 5.88zM616.53 84l2.42.21a29.27 29.27 0 0 0 6.82-5.58q-2-.19-4-.34a26.33 26.33 0 0 1-5.24 5.71z"/><path class="cls-51" d="M616.53 84a26.33 26.33 0 0 0 5.26-5.71q-2.19-.17-4.45-.29a27.19 27.19 0 0 1-3.57 5.82zM594.34 84a15.83 15.83 0 0 0 3.06 1.4l2.37.11a11.17 11.17 0 0 1-2.89-1.68zM621.4 84.45a22.19 22.19 0 0 1-3.55 1.08l2.65-.11c1-.19 2-.44 2.91-.71z"/><path class="cls-51" d="M618.95 84.19a14.58 14.58 0 0 1-3.44 1.42l2.35-.07a22.19 22.19 0 0 0 3.55-1.08z"/><path class="cls-51" d="M616.53 84a10.31 10.31 0 0 1-3.09 1.67h2.06a14.58 14.58 0 0 0 3.44-1.42z"/><path class="cls-51" d="M613.78 83.8a7.1 7.1 0 0 1-2.29 1.88h2a10.31 10.31 0 0 0 3.04-1.68zM642.84 81.11c-1-.22-2.12-.42-3.22-.62A75.49 75.49 0 0 1 625.19 85l.59.1c14.73-1.28 17.06-3.99 17.06-3.99z"/><path class="cls-51" d="M623.91 85.22l1.87-.15-.59-.1zM589.63 84.47q.81.27 1.64.5 1.66.15 3.48.27a21.78 21.78 0 0 1-2.74-1zM623.41 84.71c-.94.27-1.92.52-2.91.71q1.8-.09 3.41-.21l1.28-.24zM613.78 83.8l-2.72-.12a5.87 5.87 0 0 1-1.45 2h1.88a7.1 7.1 0 0 0 2.29-1.88zM599.75 83.69c-1 0-1.93.08-2.87.14a11.17 11.17 0 0 0 2.89 1.68l2.23.08a7.63 7.63 0 0 1-2.25-1.9z"/><path class="cls-51" d="M592 84.21a21.78 21.78 0 0 0 2.74 1l2.65.16a15.83 15.83 0 0 1-3.06-1.4zM602.53 83.61l-2.78.08a7.63 7.63 0 0 0 2.25 1.9h2a6.24 6.24 0 0 1-1.47-1.98zM611.05 83.68l-2.82-.08a10.3 10.3 0 0 1-.5 2.08h1.86a5.87 5.87 0 0 0 1.46-2z"/><path class="cls-51" d="M602.53 83.61a6.24 6.24 0 0 0 1.42 2h1.92a10.6 10.6 0 0 1-.49-2.09z"/><path class="cls-51" d="M605.59 83.58h-.22a10.6 10.6 0 0 0 .49 2.09h1.87a10.3 10.3 0 0 0 .5-2.08zM591.67 68.19l1.86 3.06c1.58 0 3.21-.08 4.86-.11l-1.24-3.07q-2.77.04-5.48.12zM597.16 68.07l1.24 3.07h4.8l-.62-3.14q-2.74 0-5.42.07z"/><path class="cls-51" d="M586.17 68.39l2.47 3 4.9-.17-1.86-3.06q-2.79.11-5.51.23zM570 69.46l4 2.71 4.87-.29L575.3 69q-2.67.23-5.3.46z"/><path class="cls-51" d="M562.44 70.24s6.44 2.23 10.32 2l1.22-.07-3.98-2.71q-3.84.35-7.56.78zM580.7 68.67l3 3 4.91-.22-2.47-3q-2.74.06-5.44.22z"/><path class="cls-43" d="M608.5 68.05H602.56l.63 3.07h3.07c2.39 0 4.78.07 7.14.13l.55-3.08c-1.79-.06-3.45-.09-5.45-.12z"/><path class="cls-51" d="M575.3 69l3.54 2.85 4.89-.26-3-3q-2.73.24-5.43.41zM641.69 69.89l-3.26 2.69 3.45.25h1.74L647 70.5q-2.59-.32-5.31-.61zM636.23 69.37l-2.85 2.86 5.06.36 3.26-2.69q-2.7-.28-5.47-.53zM653.74 71.4c-2.17-.32-4.41-.62-6.71-.9l-3.4 2.38a47 47 0 0 0 8.93-.9z"/><path class="cls-51" d="M630.67 68.94l-2.34 3 5.05.32 2.85-2.86q-2.74-.26-5.56-.46zM619.5 68.34l-1.19 3.07 5 .23 1.78-3q-2.77-.19-5.59-.3z"/><path class="cls-51" d="M625.07 68.6l-1.78 3 5 .28 2.34-3q-2.72-.13-5.56-.28zM614 68.15l-.59 3.08c1.66 0 3.3.11 4.91.17l1.19-3.07q-2.74-.1-5.51-.18z"/><path class="cls-52" d="M620.25 249.13l-5.37-66.64s-1.68-20.29-1.68-30.47a299.39 299.39 0 0 1 2-31c.78-5.81 5.48-35.24 5.48-35.24l-1.9.33-7.25 44.72c0-2.62.12-4.14.22-5.06.59-4.77 5.16-38.77 5.16-38.77h-1.6l-4.57 32.52s-.88 4.67-3 4.67-2.56-9.25-2.56-9.25l-1.92-28.78-2-.14 2.29 36.27s.16 22.77 0 31.42c-.07 3.91.33 35.28.79 68.28h-9.84c1.41-12 5.79-50.55 5.79-56.75 0-7.39-.78-43.72-1.56-51.89s-2.53-27.17-2.53-27.17l-5.54-.38s7.34 45.5 7.34 50.75 1.07 19.38-1.07 42.32c-.7 7.69-16.22 125.13-16.22 125.13h4.47l8.94-78h10.32c.55 39 1.16 79 1.16 79h2.16l-.11-16h5.4l.56 16h2.56l-.52-16H620v-1.14l2 13.14h2.46zm-8.5-76l-5 18.28c0-3.77 0-13 1.36-15.39a25.55 25.55 0 0 1 1.6 9c.08 5.45 1 36.11 1 36.11v.93h-3.61c-.17-13.06-.37-28.57-.37-30.68zM607.14 226h3.74l.47 13h-4c-.06-2-.13-7-.21-13zm.21 16h4.09l.45 13h-4.46zM606 286v-.67l1.46-28.33H612l1 29h-7zm7.5-64c-.38-10-1.48-38.85-1.75-48.56l2.91 36.06 1 12.5h-2.16zm.14 4h2.31l1.05 13h-3zm1.95 60l-.93-29H617v-2h-2.42l-.42-13h3.09l1.06 13 2.51 31h-5.23z"/><path class="cls-8" d="M619.75 249.88l-5.37-66.76s-1.68-20.35-1.68-30.53a300.07 300.07 0 0 1 2-31c.78-5.81 5.48-35.25 5.48-35.25l-1.9.33-7.25 44.71c0-2.62.12-3.9.22-4.81.56-4.81 5.13-38.53 5.13-38.53h-1.6l-4.57 32.27s-.88 4.54-3 4.54-2.56-9.31-2.56-9.31l-1.86-28.84-2-.15 2.29 36.26s.16 23 0 31.67c-.07 3.91.33 35.53.79 68.53h-9.84c1.41-12 5.79-50.8 5.79-57 0-7.39-.78-43.85-1.56-52s-2.53-27.23-2.53-27.23l-5.54-.41s7.29 45.47 7.29 50.72 1.07 19.62-1.07 42.57c-.68 7.66-16.2 125.34-16.2 125.34h4.47l8.94-78h10.32c.55 39 1.16 79 1.16 79h2.16l-.11-16h5.4l.56 16h2.56l-.52-15.83 4.59-.08 1.8 11.91H624zm-8.5-76.28l-5 18.53c0-3.77 0-13.11 1.36-15.52a25 25 0 0 1 1.6 8.91c.08 5.45 1 36.33 1 36.33V223h-3.61c-.17-13-.37-28.76-.37-30.87zm-4.61 53.4h3.74l.47 13h-4c-.06-2-.13-7-.21-13zm.21 16h4.09l.45 13h-4.46zm.4 15.4l4.23-.06 1 29-5.57-.34zM613 223c-.38-10-1.48-39.1-1.75-48.81l2.91 36.18 1 12.63H613zm.14 4h2.31l1.09 13h-3zm1.95 60l-.93-29H619v-2h-4.92l-.42-13h3.09l1.06 13 2.51 31h-5.23z"/><path class="cls-53" d="M637 436.5h-92.5v-138h79v-14h14V366"/><path class="cls-2" d="M1640.5 143v-41.9l-61.63-8.32-80.37 8.32V221"/><path class="cls-54" d="M1578 221V92.36l-79 8.74V221h79z"/><path class="cls-55" d="M825.67 376.63l.22-114.48 6.41-19.65h50.92l.28 25h186v-90h44v-58h20v-13h25v-10h44v13h7v-17h43v14h35v19.09l19.57-15.09h37.43v41h19v17h22v19h10v10h27v23h179v-69.93l50.95-9.72 61.05 8.72V279"/><path class="cls-2" d="M735.5 376.5h-59V234.11l34.11-8.61h24.89v151z"/><path class="cls-56" d="M710.5 226.15l-34 7.96v143.18l34-.44v-150.7z"/><path class="cls-2" d="M776.5 89v266"/><path class="cls-21" d="M544.76 298.17L527.5 302v134.5H545c0-1-.24-138.33-.24-138.33z"/><path class="cls-57" d="M544.76 298.17L527.5 302v134.5H545c0-1-.24-138.33-.24-138.33z"/><path class="cls-2" d="M552.5 436.5h-37v-50.53l21.24-4.47h15.76v55z"/><path class="cls-56" d="M536.5 381.42l-21 4.55v50.53h21v-55.08z"/><path class="cls-58" d="M511.5 392.15l-17 3.67v40.68h17v-44.35z"/><path class="cls-2" d="M637 436.5h-95.5v-60.35l24.57-5.65h70.43v5.5"/><path class="cls-2" d="M657.5 376.5v.11l.62-.11h-1.62v.21l-41 3.33v9.42l-22 1.61v9.51l-13 1.15v34.12l56.5 2 68.33-8.86.17-.57V376.5h-48z"/><path class="cls-2" d="M657 376.5h48.5v51.38l-68.43 9.97-26.57-.79V401"/><path class="cls-59" d="M637.53 378.95l20.62-1.66v9.76l-41.23 2.94v-9.37l20.61-1.67"/><path class="cls-60" d="M636.91 388.56v9.15l-43.22 3.61-.19-10.25 43.41-2.51z"/><path class="cls-60" d="M610.68 399.9v37.35h-28.73V402.3l28.73-2.4z"/><path class="cls-43" d="M1040.5 379.52v36.31l-260 35.16v-47.47l260-24z"/><path class="cls-43" d="M1040.5 372.82v6.7L782.59 404.5H772.5v-9.73l268-21.95z"/><path class="cls-43" d="M1032.81 365.85l10 7.33-268.5 22.32H761.2c0-7-8.84-14.1-15.63-14.14z"/><path class="cls-8" d="M678 404h104v47H678z"/><path class="cls-25" d="M678 404h104v47H678z"/><path class="cls-2" d="M678.5 403.5h103v47h-103z"/><path class="cls-8" d="M686 395h88v9h-88z"/><path class="cls-25" d="M686 395h88v9h-88z"/><path class="cls-2" d="M685.5 394.5h89v9h-89z"/><path class="cls-8" d="M761.2 395h-53.71c0-9 12-15.3 26.86-15.3S761.2 386 761.2 395z"/><path class="cls-25" d="M761.2 395h-53.71c0-9 12-15.3 26.86-15.3S761.2 386 761.2 395z"/><path class="cls-2" d="M761.2 394.5h-53.71c0-8 12-15.3 26.86-15.3s26.85 7.3 26.85 15.3z"/><ellipse class="cls-43" cx="734.34" cy="387.41" rx="3.15" ry="4.28"/><path class="cls-61" d="M924 370V226h8v-44h8v-12h7v-9h5.32l-.38-19.19 47.06-7.08V154h14v22.8l7-.56V362"/><path class="cls-25" d="M924 370V226h8v-44h8v-12h7v-9h5.32l-.38-19.19 47.06-7.08V154h14v22.8l7-.56V362"/><path class="cls-2" d="M924.5 370V226.5h7v-44h9v-13h6v-8h5.82l-.13-19.44 47.31-7.33v18.77h13v23.3l8-.56V362"/><g class="cls-62"><path class="cls-63" d="M924 370V226h8v-44h8v-12h7v-9h5.32l-.38-19.19 47.06-7.08V154h14v22.8l7-.56V362"/><path class="cls-25" d="M924 370V226h8v-44h8v-12h7v-9h5.32l-.38-19.19 47.06-7.08V154h14v22.8l7-.56V362"/></g><path class="cls-8" d="M1536 374v-39h-36v-5h-27v8h-25v-14h-10v8h-4v-6h-9v7h-107v38"/><path class="cls-54" d="M1536 374v-39h-36v-5h-27v8h-25v-14h-10v8h-4v-6h-9v7h-107v38"/><path class="cls-2" d="M1536.5 390v-55.5h-36v-5h-27v8h-25v-14h-10v8h-4v-6h-9v7h-107V371"/><path class="cls-2" d="M1642.5 373.5h-336.99l-9.06 17h346.05v-17zM1296.5 390.5h346v34h-346zM1329.5 424.5h282v41h-282z"/><path class="cls-8" d="M1667.68 371.43l158.75 17.96.01 9.96-158.33-12.64-.04-12.64"/><path class="cls-6" d="M1826.43 389.39l-159-16.98-32.64-15.04 178.75 20.54-177.2-19.83 31.34 13.35 158.75 17.96z"/><path class="cls-6" d="M1826.49 399.35L1667 386.61V371h1v14.45l158.49 13.9z"/><path class="cls-54" d="M1837 465h-124v-55.15l124 2.12V465z"/><path class="cls-64" d="M1668.5 386.71l158.94 12.64 13.91 12.65-122.35-1.65-50.5-23.64z"/><path class="cls-6" d="M1816.5 412.21l-98.46-2.05 1.25-1.15 117.71 2.96-20.5.24z"/><path class="cls-2" d="M1609.5 398.5h-274.44l-7.43 26h281.87v-26zM1652 266.5h-102.5v7h-42v-12h-23v-14h-64v-9h-42v24h-38V333M1652.5 359v-92"/><use id="New_Symbol-3" data-name="New Symbol" width="16" height="14.08" transform="matrix(.78 0 0 .78 1276.33 105.62)" xlink:href="#New_Symbol"/><use id="New_Symbol-6" data-name="New Symbol" width="16" height="14.08" transform="matrix(.78 0 0 .78 1233.86 80.64)" xlink:href="#New_Symbol"/><use id="New_Symbol-9" data-name="New Symbol" width="16" height="14.08" transform="matrix(.78 0 0 .78 1183.89 64.4)" xlink:href="#New_Symbol"/><use id="New_Symbol-12" data-name="New Symbol" width="16" height="14.08" transform="matrix(.78 0 0 .78 1311.3 144.34)" xlink:href="#New_Symbol"/><use id="New_Symbol-15" data-name="New Symbol" width="16" height="14.08" transform="matrix(.78 0 0 .78 1333.79 194.31)" xlink:href="#New_Symbol"/><use id="New_Symbol-18" data-name="New Symbol" width="16" height="14.08" transform="matrix(.78 0 0 .78 1340.03 244.27)" xlink:href="#New_Symbol"/><use id="New_Symbol-21" data-name="New Symbol" width="16" height="14.08" transform="matrix(.78 0 0 .78 1332.54 296.74)" xlink:href="#New_Symbol"/><use id="New_Symbol-24" data-name="New Symbol" width="16" height="14.08" transform="matrix(.78 0 0 .78 1315.05 339.21)" xlink:href="#New_Symbol"/><use id="New_Symbol-27" data-name="New Symbol" width="16" height="14.08" transform="matrix(.78 0 0 .78 1282.57 377.93)" xlink:href="#New_Symbol"/><use id="New_Symbol-30" data-name="New Symbol" width="16" height="14.08" transform="matrix(-.78 0 0 .78 1058.47 104.37)" xlink:href="#New_Symbol"/><use id="New_Symbol-33" data-name="New Symbol" width="16" height="14.08" transform="matrix(-.78 0 0 .78 1102.19 80.64)" xlink:href="#New_Symbol"/><use id="New_Symbol-36" data-name="New Symbol" width="16" height="14.08" transform="matrix(-.78 0 0 .78 1150.91 65.65)" xlink:href="#New_Symbol"/><use id="New_Symbol-39" data-name="New Symbol" width="16" height="14.08" transform="matrix(-.78 0 0 .78 1021 148.09)" xlink:href="#New_Symbol"/><use id="New_Symbol-42" data-name="New Symbol" width="16" height="14.08" transform="matrix(-.78 0 0 .78 1001.01 193.06)" xlink:href="#New_Symbol"/><use id="New_Symbol-45" data-name="New Symbol" width="16" height="14.08" transform="matrix(-.78 0 0 .78 992.27 245.52)" xlink:href="#New_Symbol"/><use id="New_Symbol-48" data-name="New Symbol" width="16" height="14.08" transform="matrix(-.78 0 0 .78 1001.01 296.74)" xlink:href="#New_Symbol"/><use id="New_Symbol-51" data-name="New Symbol" width="16" height="14.08" transform="matrix(-.78 0 0 .78 1021 342.95)" xlink:href="#New_Symbol"/><use id="New_Symbol-54" data-name="New Symbol" width="16" height="14.08" transform="matrix(-.78 0 0 .78 1058.47 384.18)" xlink:href="#New_Symbol"/><circle class="cls-65" cx="1166.54" cy="247.09" r="41.01"/><circle class="cls-65" cx="1166.54" cy="247.09" r="82.36"/><circle class="cls-65" cx="1166.54" cy="247.09" r="87.8"/><circle class="cls-65" cx="1166.54" cy="247.09" r="46.76"/><circle class="cls-65" cx="1166.54" cy="247.09" r="128.37"/><circle class="cls-65" cx="1166.54" cy="247.09" r="135.07"/><path class="cls-66" d="M1247.31 412.54a184.07 184.07 0 1 0-163.18-.82"/><path class="cls-67" d="M1121.91 425.71a185.46 185.46 0 0 0 92.93-1"/><path class="cls-68" d="M1163.5 248V63M1168.5 248V63"/><path class="cls-69" d="M1163.53 216.68l5.12 5.6M1168.65 223.64l-5.12 5.11M1163.53 203.41l5.19 5.89M1168.5 210.28l-4.97 5.2M1163.53 190.14l5.06 5.89M1168.72 197.02l-5.19 5.19M1163.53 176.87l5.11 5.72M1168.5 183.74l-4.97 5.2M1163.53 163.6l4.97 5.51M1168.64 170.57l-5.11 5.1M1163.53 150.33l5.13 5.39M1168.66 157.27l-5.13 5.13M1163.53 137.05l5.08 5.65M1168.61 144.05l-5.08 5.08M1163.53 123.78l5.08 5.08M1168.61 130.78l-5.08 5.08M1163.53 110.51l5.08 5.21M1168.61 116.42l-5.08 6.17M1163.53 97.24l4.97 6.18M1168.5 104.35l-4.97 4.96M1163.53 83.97l4.97 4.97M1168.5 89.87l-4.97 6.17M1163.53 70.7l4.97 6.17M1168.5 77.8l-4.97 4.97"/><circle class="cls-70" cx="1166.54" cy="247.09" r="15.8"/><circle class="cls-71" cx="1166.54" cy="247.09" r="9.97"/><path class="cls-61" d="M1248.43 412.35l18.76 38.65h-49.07l-5.9-24.25s-8.32-14.51-45.68-14.51-43.89 10.58-43.89 10.58l-6.94 28.18h-49.07l99.89-203.14-40.7 161.65a257.49 257.49 0 0 1 40.7-3.49 219 219 0 0 1 41.6 3.82l-40.85-162.25 81.14 164.76"/><path class="cls-72" d="M1248.43 412.35l18.76 38.65h-49.07l-5.9-24.25s-8.32-14.51-45.68-14.51-43.89 10.58-43.89 10.58l-6.94 28.18h-49.07l99.89-203.14-40.7 161.65a257.49 257.49 0 0 1 40.7-3.49 219 219 0 0 1 41.6 3.82l-40.85-162.25 81.14 164.76"/><path class="cls-73" d="M1248.43 412.1l18.75 38.4h-49.07l-5.9-24s-8.32-14.39-45.68-14.39-43.89 10.39-43.89 10.39l-6.94 28h-49.07l99.89-202.89-40.7 161.78a258 258 0 0 1 40.7-3.42 218.69 218.69 0 0 1 41.6 3.85l-40.85-162.36 81.14 164.65"/><path class="cls-74" d="M1246.12 408.6a180 180 0 1 0-159.18 0"/><path class="cls-70" d="M1122.72 421.73a181.41 181.41 0 0 0 88.94-.33"/><path class="cls-54" d="M1602 150v116h50V140"/><path class="cls-75" d="M1321.5 472v20"/><path class="cls-28" d="M1211.03 421.51l1.29 5.14"/><path class="cls-66" d="M1350.61 247.09A184.06 184.06 0 0 0 1166.54 63"/><path class="cls-43" d="M735.5 98.11l41-10v291.28l-41 .08V98.11z"/><path class="cls-76" d="M1720.39 409.5l-36.83-16.66-16.06-7.43v-13.74l-32.51-14.01-36.87 17.84h5.38v9.67l-61.6 28.33h8.6v52h163v-56h6.89z"/><path class="cls-77" d="M999.51 119.74l-15.01 3.1v13.51l15.06-2.47-.05-14.14z"/><path class="cls-78" d="M999.01 119.57L984 122.84V136"/><path class="cls-79" d="M1812.65 377.56l13.85 11.83v9.96l15.73 13.15h-5.73V466"/><path class="cls-53" d="M536.5 381.5h16v55h-16z"/><path class="cls-32" d="M549.31 380.6l-7.31.25v-4.24l5.43-1.04 1.88 5.03z"/><path class="cls-80" d="M594.5 454.5v12h438.31l-3.05 22h291.74v6h392v-23h-392v-5h-289.24l10.73-12H596.31l14.58-6H483.5v6h111z"/><path class="cls-80" d="M263.5 448.5h347v19h-347z"/><path class="cls-81" d="M1712.5 471.5h860v19h-860zM-396.5 471.5h621v19h-621z"/><path class="cls-82" d="M678.29 403.7l104.21.15v47.5l-104.74-.36.53-47.29z"/><path class="cls-39" d="M308 144h45v300h-45z"/><path class="cls-8" d="M-12 431h506v13H-12z"/><path class="cls-80" d="M263.5 467.5l-39.09 22.88v-18.93l39.09-22.88v18.93z"/></svg>