<svg xmlns="http://www.w3.org/2000/svg" width="320.681" height="65.555" viewBox="0 0 320.681 65.555"><path fill="#FEBC11" d="M84.138.009l-2.744 2.913 27.989 29.891-28.119 29.806 2.711 2.93 30.881-32.736L84.138.009zm-26.727 0l-2.734 2.904 27.981 29.905L54.54 62.619l2.711 2.936 30.881-32.736L57.411.009zm13.375 0l-2.753 2.916 27.988 29.894-28.123 29.803 2.708 2.933 30.887-32.736L70.786.009zM43.392 0L22.215 22.536a8.792 8.792 0 0 1 3.002 1.423L43.174 5.068l26.12 27.75-26.289 27.558-17.981-19.347a8.697 8.697 0 0 1-3.229 1.368l21.436 23.151 30.887-32.736L43.392 0z"/><path fill="#004B85" d="M42.535 24.572c4.125 0 7.46 3.521 7.46 7.862 0 4.333-3.345 7.839-7.46 7.839-4.125 0-7.466-3.506-7.458-7.839-.008-4.341 3.333-7.862 7.458-7.862zM20.12 26.693c2.875.006 5.211 2.565 5.211 5.741 0 3.154-2.336 5.717-5.211 5.717-2.883 0-5.22-2.56-5.22-5.724 0-3.168 2.336-5.728 5.22-5.734zM3.595 28.643C1.615 28.64 0 30.334 0 32.428c0 2.084 1.615 3.774 3.595 3.771 1.985 0 3.595-1.682 3.589-3.771.006-2.088-1.604-3.785-3.589-3.785z"/><g><g fill="#004B85"><path d="M127.634 42.979h7.427c4.822 0 6.812 1.675 6.812 4.915 0 1.783-.888 4.664-6.262 4.664h-4.548v5.721h-3.429v-15.3zm3.428 7.08h3.999c1.819 0 3.258-.533 3.258-2.184 0-2.076-1.905-2.395-3.872-2.395h-3.385v4.579zM148.432 42.979h3.427v9.347c0 2.543 1.63 3.98 4.254 3.98 2.539 0 4.23-1.245 4.23-4.064v-9.263h3.428v9.196c0 3.498-1.46 6.508-8.187 6.508-3.704 0-7.153-1.887-7.153-5.895v-9.809zM171.474 42.979h8.991c3.006 0 5.672.741 5.672 3.897 0 1.932-1.778 3.139-3.767 3.266v.146c1.988.171 4.55.977 4.55 3.877 0 1.678-1.187 4.113-6.115 4.113h-9.331V42.979zm3.428 6.231h4.887c1.672 0 2.666-.509 2.666-1.862 0-1.655-1.543-1.994-3.321-1.994h-4.231v3.856zm0 6.694h4.738c2.095 0 3.598-.57 3.598-2.137 0-1.762-1.84-2.187-3.364-2.187h-4.971v4.324zM194.345 42.979h3.429v12.8h8.398v2.5h-11.827v-15.3zM212.309 42.979h3.426v15.3h-3.426v-15.3zM225.912 53.49c.19 1.826 1.522 2.924 4.229 2.924 2.837 0 3.875-1.229 3.875-2.332 0-1.1-.784-1.609-2.477-1.84l-3.152-.425c-4.04-.552-5.373-2.269-5.373-4.282 0-3.537 3.301-4.959 6.854-4.959 4.464 0 6.879 1.885 6.983 4.979h-3.425c-.133-1.99-1.506-2.707-3.874-2.707-1.42 0-2.986.697-2.986 2.094 0 1.188.868 1.674 2.226 1.867l4.379.613c3.639.509 4.398 2.65 4.398 4.238 0 3.156-2.708 5.023-7.889 5.023-4.424 0-7.196-1.906-7.196-5.193h3.428zM245.209 42.979h3.43v6.23h8.314v-6.23h3.426v15.3h-3.426v-6.566h-8.314v6.566h-3.43v-15.3zM268.72 42.979h3.426v15.3h-3.426v-15.3zM280.12 42.979h4.822l8.654 11.742h.045V42.979h3.088v15.3h-4.613l-8.863-11.951h-.045v11.951h-3.088v-15.3zM317.124 47.918c-.105-2.141-2.303-2.966-4-2.966-3.215 0-6.197 1.631-6.197 5.612 0 2.841 1.523 5.619 6.219 5.619 1.336 0 2.498-.17 4.191-.699v-2.926h-4.889v-2.374h8.232v7.141c-2.18.934-5.523 1.358-7.746 1.358-5.691 0-9.561-2.547-9.561-8.098 0-4.576 3.236-8.01 9.244-8.01 4.611 0 8.062 1.762 8.062 5.342h-3.555z"/></g><g fill="#004B85"><path d="M147.072 16.54c-.363-3.671-4.1-4.689-8.347-4.689-3.738 0-6.895 1.853-6.895 4.764 0 1.416.871 2.871 4.1 3.412l9.764 1.675c4.245.728 6.205 3.162 6.205 6.396 0 5.233-4.681 8.395-12.447 8.395-7.44 0-11.759-2.76-12.23-8.542h3.993c.109 3.527 3.483 5.564 8.454 5.564 5.445 0 8.457-2.144 8.457-5.015 0-7.271-20.068-.692-20.068-11.67 0-5.051 4.281-7.958 11.431-7.958 5.445 0 11.214 1.634 11.578 7.668h-3.995zM164.055 9.56h3.775v26.241h-3.775V9.56zM181.22 9.56h3.775v23.263h15.098v2.978H181.22V9.56zM208.584 9.56h3.775v26.241h-3.775V9.56zM248.247 28.5c-.832 5.776-6.279 7.994-12.7 7.994-9.362 0-13.681-6.579-13.681-13.809 0-6.253 3.737-13.813 14.73-13.813 6.207 0 10.964 3.126 11.291 7.596h-4.209c-.656-3.416-3.74-4.617-7.369-4.617-5.99 0-10.451 3.452-10.451 10.834 0 7.375 4.461 10.83 10.451 10.83 3.59 0 7.074-1.602 7.728-5.015h4.21zM270.749 8.872c10.996 0 14.732 7.56 14.732 13.813 0 6.251-3.736 13.809-14.732 13.809s-14.735-7.557-14.735-13.809c0-6.253 3.739-13.813 14.735-13.813zm0 24.643c6.35 0 10.742-4.363 10.742-10.83 0-6.472-4.393-10.834-10.742-10.834s-10.742 4.362-10.742 10.834c0 6.467 4.392 10.83 10.742 10.83zM315.675 9.56h3.773v26.241h-5.154l-16.037-22.384h-.074v22.384h-3.775V9.56h5.154l16.041 22.391h.072V9.56z"/></g></g></svg>