<svg xmlns="http://www.w3.org/2000/svg" width="73" height="73" viewBox="0 0 73 73"><linearGradient id="a" gradientUnits="userSpaceOnUse" x1="16.199" y1="14.807" x2="8.421" y2="25.759"><stop offset="0" stop-color="#676767"/><stop offset="1" stop-color="#343433"/></linearGradient><path opacity=".9" fill="url(#a)" d="M24.601-.022s15.349.148-2.998 16.77c0 0-8.461 7.406-12.344 14.248 0 0-8.545 14.754-9.111 7.911 0 0-.359-1.599.101-5.213 0 0 .116-1.289.936-3.488L13.422 6.964S16.67.935 24.601-.022z"/><linearGradient id="b" gradientUnits="userSpaceOnUse" x1="13.148" y1="57.715" x2="8.209" y2="43.224"><stop offset="0" stop-color="#343433"/><stop offset="1" stop-color="#4e4e4e"/></linearGradient><path opacity=".9" fill="url(#b)" d="M1.428 29.459S9.22 15.082 13.289 40.666c0 0 1.669 11.669 5.178 18.745 0 0 7.481 15.424 1.747 12.534 0 0-1.453-.461-4.102-2.701 0 0-.969-.752-2.313-2.624L1.403 43.478s-3.178-6.072.025-14.019z"/><radialGradient id="c" cx="72.634" cy="68.574" r="57.298" gradientTransform="matrix(.902 0 0 .9806 5.356 .308)" gradientUnits="userSpaceOnUse"><stop offset="0" stop-color="#3e4018"/><stop offset=".176" stop-color="#3d411c"/><stop offset=".334" stop-color="#3a4426"/><stop offset=".484" stop-color="#344a39"/><stop offset=".63" stop-color="#2c5252"/><stop offset=".774" stop-color="#225c74"/><stop offset=".912" stop-color="#16699c"/><stop offset="1" stop-color="#0d72b9"/></radialGradient><path opacity=".9" fill="url(#c)" d="M13.326 66.018s-7.557-14.526 14.86-5.563c0 0 10.129 4.264 17.52 4.497 0 0 16.027.67 10.858 4.622 0 0-1.094 1.14-4.203 2.512 0 0-1.085.535-3.246.864l-24.633.1s-6.426-.044-11.156-7.032z"/><linearGradient id="d" gradientUnits="userSpaceOnUse" x1="42.387" y1="52.724" x2="72.985" y2="52.724"><stop offset="0" stop-color="#052329"/><stop offset=".019" stop-color="#092629"/><stop offset=".255" stop-color="#3a4b2d"/><stop offset=".479" stop-color="#616730"/><stop offset=".684" stop-color="#7c7c32"/><stop offset=".864" stop-color="#8d8934"/><stop offset="1" stop-color="#938d34"/></linearGradient><path opacity=".9" fill="url(#d)" d="M48.399 73.094s-15.349-.148 2.999-16.77c0 0 8.461-7.407 12.343-14.247 0 0 8.545-14.756 9.11-7.912 0 0 .359 1.598-.1 5.211 0 0-.116 1.289-.937 3.49L59.579 66.108s-3.247 6.029-11.18 6.986z"/><linearGradient id="e" gradientUnits="userSpaceOnUse" x1="63.355" y1="26.302" x2="68.533" y2="40.542"><stop offset="0" stop-color="gray"/><stop offset="1" stop-color="#b3b2b3"/></linearGradient><path opacity=".9" fill="url(#e)" d="M71.572 43.612s-7.793 14.377-11.858-11.208c0 0-1.671-11.668-5.179-18.744 0 0-7.481-15.425-1.747-12.534 0 0 1.453.46 4.102 2.701 0 0 .97.752 2.313 2.625l12.396 23.142c-.001.001 3.177 6.073-.027 14.018z"/><linearGradient id="f" gradientUnits="userSpaceOnUse" x1="15.357" y1="-2.215" x2="45.703" y2="7.069"><stop offset="0" stop-color="#4e4e4e"/><stop offset="1" stop-color="#989897"/></linearGradient><path opacity=".9" fill="url(#f)" d="M59.676 7.053s7.554 14.527-14.86 5.564c0 0-10.129-4.264-17.521-4.497 0 0-16.028-.669-10.858-4.623 0 0 1.095-1.139 4.204-2.512 0 0 1.798-.681 3.961-1.008l23.917.045s6.426.042 11.157 7.031z"/></svg>