<svg xmlns="http://www.w3.org/2000/svg" width="120.312" height="104.229" viewBox="0 0 120.312 104.229"><path fill="#034F86" stroke="#FAC04A" stroke-width="2" stroke-miterlimit="10" d="M1.184 52.079l29.53-51.054 58.963.038 29.452 51.105-29.516 51.036-58.976-.039z"/><g fill="#FAC04A"><path d="M36.249 45.848s.241 12.536 10.539 22.834a31.25 31.25 0 0 0 4.342 3.646c-.025-3.905 1.18-10.044 7.248-16.623-10.156-9.622-22.129-9.857-22.129-9.857zM60.156 53.908l.039-.037a38.945 38.945 0 0 1 9.121-6.437c-.324-14.067-8.679-22.757-8.679-22.757s-8.554 8.896-8.688 23.259a38.875 38.875 0 0 1 8.168 5.934l.039.038zM82.896 59.756a38.802 38.802 0 0 1-7.583 10.714 34.105 34.105 0 0 1-4.69 3.938c-.56.387-1.126.745-1.694 1.082 1.204.144 2.498.224 3.888.224 14.563 0 23.599-8.695 23.599-8.695s-4.989-4.795-13.52-7.263zM44.999 70.47a38.875 38.875 0 0 1-7.79-11.157c-8.402 2.485-13.31 7.199-13.31 7.199s9.034 8.695 23.598 8.695a34.11 34.11 0 0 0 3.137-.148l-.942-.65a34.135 34.135 0 0 1-4.693-3.939zM77.961 44.237c.736-6.037-.231-10.28-.231-10.28s-3.251.881-7.427 3.459c.77 2.646 1.33 5.61 1.497 8.865a39.8 39.8 0 0 1 6.161-2.044zM49.455 46.695a38.77 38.77 0 0 1 1.467-9.11c-4.307-2.712-7.701-3.628-7.701-3.628s-.987 4.32-.212 10.445a39.935 39.935 0 0 1 6.446 2.293zM73.525 68.682c10.298-10.298 10.539-22.834 10.539-22.834s-11.974.235-22.13 9.857c-.235.224-.473.446-.706.68-.377.377-.731.753-1.072 1.126-6.45 7.05-6.753 13.388-6.406 16.409 2.38 1.247 4.56 1.872 6.406 2.146 1.848-.274 4.026-.899 6.406-2.146a24.97 24.97 0 0 0 2.621-1.592 31.122 31.122 0 0 0 4.342-3.646z"/></g></svg>