<svg xmlns="http://www.w3.org/2000/svg" width="1061.81" height="460.391" viewBox="0 0 1061.81 460.391"><path d="M244.777 0h41.695v343.374h-41.695v-33.848c-25.508 25.508-63.279 43.658-101.541 43.658C64.26 353.185 0 288.435 0 209.949 0 130.973 64.26 66.713 143.236 66.713c32.375 0 64.751 12.263 91.24 33.356l-21.583 36.3c-20.112-17.659-44.639-27.96-69.656-27.96-56.902 0-101.05 44.148-101.05 101.541 0 57.393 44.148 101.541 101.05 101.541 57.393 0 101.541-44.147 101.541-101.541V0zM447.779 66.713c78.976 0 143.236 64.26 143.236 143.236 0 78.486-64.26 143.236-143.236 143.236-78.485 0-143.236-64.75-143.236-143.236 0-78.976 64.75-143.236 143.236-143.236zm0 244.776c57.393 0 101.541-44.147 101.541-101.541 0-57.393-44.148-101.541-101.541-101.541-56.902 0-101.541 44.148-101.541 101.541 0 57.394 44.639 101.541 101.541 101.541zM573.446 410.578c21.093-20.604 36.79-46.111 36.79-73.091V75.542h41.695v261.945c0 38.262-20.603 74.562-49.054 101.541l-29.431-28.45zm36.79-406.654h41.695v52.487h-41.695V3.924zM810.728 66.713c78.977 0 143.236 64.26 143.236 143.236 0 78.486-64.26 143.236-143.236 143.236-78.485 0-143.235-64.75-143.235-143.236 0-78.976 64.75-143.236 143.235-143.236zm0 244.776c57.394 0 101.541-44.147 101.541-101.541 0-57.393-44.147-101.541-101.541-101.541-56.901 0-101.54 44.148-101.54 101.541 0 57.394 44.639 101.541 101.54 101.541zM511.515 19.954a8 8 0 0 1-8 8h-109a8 8 0 0 1 0-16h109a8 8 0 0 1 8 8zM873.515 20.954a8 8 0 0 1-8 8h-109a8 8 0 0 1 0-16h109a8 8 0 0 1 8 8z"/><g><path d="M755.118 383.333v15.461h14.472v11.38h-14.472v26.593c0 7.298 1.979 11.132 7.792 11.132 2.845 0 4.205-.247 5.938-.742l.247 11.627c-2.227.865-6.185 1.607-11.008 1.607-5.566 0-10.267-1.979-13.111-5.071-3.216-3.463-4.7-8.905-4.7-16.821v-28.324h-8.658v-11.38h8.658v-11.132l14.842-4.33zM836.62 428.355c0 22.141-15.585 32.035-30.922 32.035-17.068 0-30.18-11.75-30.18-31.046 0-19.789 12.987-31.911 31.169-31.911 17.936.001 29.933 12.617 29.933 30.922zm-45.394.62c0 11.626 5.689 20.408 14.967 20.408 8.658 0 14.719-8.534 14.719-20.656 0-9.4-4.205-20.161-14.596-20.161-10.761-.001-15.09 10.389-15.09 20.409zM904.383 428.355c0 22.141-15.585 32.035-30.922 32.035-17.068 0-30.18-11.75-30.18-31.046 0-19.789 12.987-31.911 31.169-31.911 17.936.001 29.933 12.617 29.933 30.922zm-45.393.62c0 11.626 5.689 20.408 14.967 20.408 8.658 0 14.719-8.534 14.719-20.656 0-9.4-4.205-20.161-14.596-20.161-10.761-.001-15.09 10.389-15.09 20.409zM912.879 371.212h15.338v87.818h-15.338v-87.818zM955.881 425.264h.247c1.484-2.351 3.216-4.947 4.824-7.051l14.595-19.419h18.306l-22.264 24.614 25.48 35.622h-18.678l-17.315-26.593-5.195 6.061v20.532h-15.214v-87.818h15.214v54.052zM1018.436 381.973c0 4.576-3.339 8.163-8.658 8.163-5.071 0-8.41-3.587-8.41-8.163 0-4.7 3.463-8.287 8.534-8.287 5.195 0 8.411 3.586 8.534 8.287zm-16.203 77.057v-60.236h15.338v60.236h-15.338zM1047.338 383.333v15.461h14.472v11.38h-14.472v26.593c0 7.298 1.979 11.132 7.792 11.132 2.845 0 4.205-.247 5.938-.742l.247 11.627c-2.227.865-6.185 1.607-11.008 1.607-5.566 0-10.267-1.979-13.111-5.071-3.216-3.463-4.7-8.905-4.7-16.821v-28.324h-8.658v-11.38h8.658v-11.132l14.842-4.33z"/></g></svg>